<?xml version="1.0"?><svg width="640" height="480" xmlns="http://www.w3.org/2000/svg">
 <g>
  <title>Layer 1</title>
  <g id="g3">
   <path d="m515,368.266663c0,40.171448 -32.56189,72.733368 -72.733337,72.733368l-254.542847,0c-40.161911,0 -72.723816,-32.56192 -72.723816,-72.733368l0,-254.542847c0,-40.171448 32.561905,-72.723816 72.723816,-72.723816l254.542847,0c40.171448,0 72.733337,32.552368 72.733337,72.723816l0,254.542847z" id="path5" fill="#006400"/>
   <path d="m515,368.266663c0,40.171448 -32.56189,72.733368 -72.733337,72.733368l-254.542847,0c-40.161911,0 -72.723816,-32.56192 -72.723816,-72.733368l0,-254.542847c0,-40.171448 32.561905,-72.723816 72.723816,-72.723816l254.542847,0c40.171448,0 72.733337,32.552368 72.733337,72.723816l0,254.542847z" id="path7" fill="#006400"/>
   <path d="m507.428589,363.447632c0,38.638123 -31.342834,69.971436 -69.980957,69.971436l-244.895248,0c-38.638092,0 -69.971436,-31.333313 -69.971436,-69.971436l0,-244.895264c0,-38.647614 31.333344,-69.980927 69.971436,-69.980927l244.9048,0c38.638092,0 69.980927,31.333313 69.980927,69.980927l0,244.895264l-0.009521,0z" id="path14" fill="#006400"/>
   <path d="m515,170.933334l0,-57.209518c0,-40.171448 -32.56189,-72.723816 -72.733337,-72.723816l-254.542847,0c-40.161911,0 -72.723816,32.552368 -72.723816,72.723816l0,56.733337c99.266693,54.780945 239.066681,88.028595 400,0.476181z" id="path21" fill="#006400"/>
  </g>
 </g>
</svg>
