<?xml version="1.0" encoding="UTF-8" standalone="no"?>
<!-- Created with Inkscape (http://www.inkscape.org/) -->

<svg
   xmlns:dc="http://purl.org/dc/elements/1.1/"
   xmlns:cc="http://creativecommons.org/ns#"
   xmlns:rdf="http://www.w3.org/1999/02/22-rdf-syntax-ns#"
   xmlns:svg="http://www.w3.org/2000/svg"
   xmlns="http://www.w3.org/2000/svg"
   xmlns:sodipodi="http://sodipodi.sourceforge.net/DTD/sodipodi-0.dtd"
   xmlns:inkscape="http://www.inkscape.org/namespaces/inkscape"
   width="133.57655mm"
   height="143.96686mm"
   viewBox="0 0 473.30275 510.11879"
   id="svg5897"
   version="1.1"
   inkscape:version="0.91 r13725"
   sodipodi:docname="apartment_grey.svg">
  <defs
     id="defs5899" />
  <sodipodi:namedview
     id="base"
     pagecolor="#ffffff"
     bordercolor="#666666"
     borderopacity="1.0"
     inkscape:pageopacity="0.0"
     inkscape:pageshadow="2"
     inkscape:zoom="0.35"
     inkscape:cx="-278.34863"
     inkscape:cy="283.63083"
     inkscape:document-units="px"
     inkscape:current-layer="layer1"
     showgrid="false"
     fit-margin-top="0"
     fit-margin-left="0"
     fit-margin-right="0"
     fit-margin-bottom="0"
     inkscape:window-width="1920"
     inkscape:window-height="1017"
     inkscape:window-x="-8"
     inkscape:window-y="-8"
     inkscape:window-maximized="1" />
  <metadata
     id="metadata5902">
    <rdf:RDF>
      <cc:Work
         rdf:about="">
        <dc:format>image/svg+xml</dc:format>
        <dc:type
           rdf:resource="http://purl.org/dc/dcmitype/StillImage" />
        <dc:title></dc:title>
      </cc:Work>
    </rdf:RDF>
  </metadata>
  <g
     inkscape:label="Layer 1"
     inkscape:groupmode="layer"
     id="layer1"
     transform="translate(-231.92006,-305.87423)">
    <g
       transform="translate(212.42006,304.99303)"
       id="g5856"
       style="fill:#cccccc;fill-opacity:1">
      <path
         style="fill:#cccccc;fill-opacity:1"
         d="m 32.531475,510.26266 c -4.255325,-0.6274 -8.236982,-3.79562 -10.804114,-8.59687 L 19.5,497.5 l 0,-202 c 0,-195.557005 0.05985,-202.120449 1.876417,-205.77629 1.032029,-2.076959 3.957029,-5.609936 6.5,-7.851059 C 32.44628,77.845226 87.099984,37.960421 121,13.913564 L 138.5,1.5 l 9.65276,0 9.65276,0 7.84724,5.4262958 c 9.06893,6.2710822 29.31548,20.8187202 65.14847,46.8107562 l 25.30124,18.352657 32.19876,-23.390103 C 329.81232,18.544771 336.82119,13.515516 346.5,6.9387539 l 8,-5.4360081 9.65485,-0.00137 9.65485,-0.00137 7.84515,5.4641199 c 10.46661,7.2899563 69.64186,50.2596933 90.40962,65.6503783 10.10891,7.491566 17.07488,13.368824 17.87414,15.080594 0.72032,1.542699 1.71031,8.879908 2.19997,16.304912 0.48966,7.425 0.77129,99.23956 0.62585,204.03235 L 492.5,498.56469 l -3.55936,4.96766 c -2.31423,3.22987 -4.76297,5.38518 -7,6.16121 -2.62872,0.9119 -55.71007,1.17152 -224.94064,1.10017 -121.825,-0.0514 -222.835836,-0.29035 -224.468525,-0.53107 z M 117,433 l 0,-17 -17.5,0 -17.5,0 0,17 0,17 17.5,0 17.5,0 0,-17 z m 98,0 0,-17 -18,0 -18,0 0,17 0,17 18,0 18,0 0,-17 z m 118,0 0,-17 -18,0 -18,0 0,17 0,17 18,0 18,0 0,-17 z m 97,0 0,-17 -17,0 -17,0 0,17 0,17 17,0 17,0 0,-17 z M 116.51759,349.75 c 0.30564,-1.2375 0.42671,-9 0.26906,-17.25 L 116.5,317.5 99.25,317.22639 82,316.95277 82,334.47639 82,352 l 16.980948,0 c 16.778552,0 16.987572,-0.0268 17.536642,-2.25 z m 98.25612,-15.52317 0.27372,-17.27317 -17.77372,0.27317 L 179.5,317.5 l -0.27646,15.95986 c -0.15205,8.77792 -0.0496,16.55109 0.22771,17.27371 0.39522,1.02992 4.23685,1.2547 17.77646,1.04014 L 214.5,351.5 l 0.27371,-17.27317 z m 117.9999,0.0232 0.27362,-17.25 -18.02362,0 -18.02361,0 0,16.83333 c 0,9.25834 0.31026,17.1436 0.68947,17.5228 0.3792,0.37921 8.3667,0.56671 17.75,0.41667 L 332.5,351.5 332.77361,334.25 Z M 430,334.5 l 0,-17.5 -17,0 -17,0 0,17.5 0,17.5 17,0 17,0 0,-17.5 z m -313.5,-98 0,-17 L 99.25,219.22639 82,218.95277 82,236.5 l 0,17.54723 17.25,-0.27362 17.25,-0.27361 0,-17 z m 98.5,-0.0231 0,-17.52308 -17.75,0.27308 -17.75,0.27307 -0.27646,15.95986 c -0.15205,8.77792 -0.0537,16.54042 0.21862,17.25 0.37822,0.98563 4.63292,1.29014 18.02646,1.29014 L 215,254 l 0,-17.52307 z m 117.5,0.0231 0,-17 -17.75,-0.27307 -17.75,-0.27308 0,17.54615 0,17.54615 17.75,-0.27308 17.75,-0.27307 0,-17 z m 97.5,0 0,-17.5 -17,0 -17,0 0,17.5 0,17.5 17,0 17,0 0,-17.5 z m -313,-98 0,-17.5 -17.5,0 -17.5,0 0,17.5 0,17.5 17.5,0 17.5,0 0,-17.5 z m 97.77361,-0.25 0.27362,-17.25 -18.14025,0 -18.14024,0 0.60297,2.25 c 0.33164,1.2375 0.60913,9.12313 0.61664,17.52361 L 180,156.04723 197.25,155.77361 214.5,155.5 214.77361,138.25 Z M 332,150.657 c 0,-2.93865 0.29415,-10.81365 0.65368,-17.5 L 333.30735,121 315.15368,121 297,121 l 0,16.83333 c 0,9.25834 0.3,17.13334 0.66667,17.5 0.36666,0.36667 8.24166,0.66667 17.5,0.66667 L 332,156 l 0,-5.343 z m 98,-12.157 0,-17.5 -17,0 -17,0 0,17.5 0,17.5 17,0 17,0 0,-17.5 z"
         id="path5876"
         inkscape:connector-curvature="0" />
      <path
         style="fill:#cccccc;fill-opacity:1"
         d="m 33.479078,510.07079 c -4.44746,-1.06661 -8.150613,-3.80617 -10.711467,-7.92426 L 20.5,498.5 l 0,-203 C 20.5,67.070373 19.657477,89.979418 28.338458,82.364502 34.688754,76.794053 118.99109,15.663673 134.71887,5.2245846 c 5.33142,-3.5386478 6.01755,-3.7239338 13.74428,-3.7115482 l 8.13272,0.013036 15.95207,11.1922046 c 8.77363,6.155712 30.80206,21.997947 48.95206,35.204965 18.15,13.207019 33.675,24.019334 34.5,24.027368 0.825,0.008 14.55,-9.498907 30.5,-21.126536 46.53479,-33.924095 66.39025,-47.7109102 70.47446,-48.9345677 2.37116,-0.7104162 6.27254,-0.8818678 10.28619,-0.4520413 7.20078,0.7711381 4.85698,-0.72532808 49.23935,31.438213 58.80674,42.616762 71.28697,52.17469 73.23788,56.088886 1.66264,3.335841 1.77755,14.973716 2.03544,206.142406 l 0.27331,202.60698 -3.30001,4.78864 c -1.81501,2.63375 -4.85598,5.62311 -6.75772,6.64303 -3.33899,1.79072 -11.04556,1.85087 -224.4733,1.75202 -121.55858,-0.0563 -222.375015,-0.42838 -224.036522,-0.82685 z M 117,433 l 0,-18 -18,0 -18,0 0,18 0,18 18,0 18,0 0,-18 z m 98.5,0 0,-17.5 -18.25,-0.27256 L 179,414.95488 179,433 l 0,18.04512 18.25,-0.27256 18.25,-0.27256 0,-17.5 z m 117.5,-0.0226 0,-18.02256 -18.25,0.27256 -18.25,0.27256 -0.27579,16.46161 c -0.15168,9.05389 -0.0533,17.04139 0.21862,17.75 0.37808,0.98527 4.73663,1.28839 18.52579,1.28839 L 333,451 l 0,-18.02256 z m 98,0.0226 0,-18 -18,0 -18,0 0,18 0,18 18,0 18,0 0,-18 z M 116.77307,334.25 116.5,316.5 l -17.5,0 -17.5,0 -0.273074,17.75 L 80.953851,352 99,352 l 18.04615,0 -0.27308,-17.75 z m 99,0 -0.27307,-17.75 -18,0 -18,0 -0.27307,17.75 -0.27308,17.75 18.54615,0 18.54615,0 -0.27308,-17.75 z M 333,333.97744 l 0,-18.02256 -18.25,0.27256 -18.25,0.27256 -0.27579,16.46161 c -0.15168,9.05389 -0.0533,17.04139 0.21862,17.75 0.37808,0.98527 4.73663,1.28839 18.52579,1.28839 L 333,352 333,333.97744 Z M 430.77307,334.25 430.5,316.5 l -17.5,0 -17.5,0 -0.27307,17.75 -0.27308,17.75 18.04615,0 18.04615,0 -0.27308,-17.75 z m -314,-97.5 L 117.04615,219 99.023074,219 81,219 l 0,17.33333 c 0,9.53334 0.31026,17.6436 0.689467,18.0228 0.379207,0.37921 8.366707,0.56671 17.75,0.41667 L 116.5,254.5 l 0.27307,-17.75 z m 97.64514,17.64301 c 1.35849,-0.5213 1.58179,-3.06234 1.58179,-18 L 216,219 l -18.5,0 -18.5,0 0,17.33333 c 0,9.53334 0.3,17.63334 0.66667,18 0.83322,0.83323 32.59358,0.88777 34.75154,0.0597 z M 332.77307,236.75 333.04615,219 314.52307,219 296,219 l 0,16.8 c 0,11.9063 0.35615,17.15615 1.22266,18.02266 0.89032,0.89032 5.85087,1.14854 18.25,0.95 L 332.5,254.5 l 0.27307,-17.75 z m 98,0 0.27308,-17.75 -18.02308,0 -18.02307,0 0,17.33333 c 0,9.53334 0.31026,17.6436 0.68947,18.0228 0.3792,0.37921 8.3667,0.56671 17.75,0.41667 L 430.5,254.5 430.77307,236.75 Z M 117,138.5 l 0,-18.5 -18,0 -18,0 0,17.83333 c 0,9.80834 0.3,18.13334 0.666667,18.5 0.366666,0.36667 8.466666,0.66667 18,0.66667 L 117,157 l 0,-18.5 z m 313.77256,-0.25 0.27256,-18.25 -18.02256,0 -18.02256,0 0,18.52307 0,18.52308 17.75,-0.27308 17.75,-0.27307 0.27256,-18.25 z m -215.28654,4.5 c 0.38,-7.2875 0.5386,-15.275 0.35244,-17.75 L 215.5,120.5 197.25,120.22744 179,119.95488 l 0,18.02256 0,18.02256 17.89756,0 17.89755,0 0.69091,-13.25 z M 333,138 l 0,-18 -17.94098,0 c -10.90255,0 -18.18387,0.39299 -18.56009,1.00172 -0.3405,0.55095 -0.30093,8.65095 0.0879,18 L 297.29391,156 l 17.85304,0 17.85305,0 0,-18 z"
         id="path5874"
         inkscape:connector-curvature="0" />
      <path
         style="fill:#cccccc;fill-opacity:1"
         d="m 34.5,510.07129 c -4.668413,-1.12663 -7.185509,-2.79244 -10.209352,-6.75654 -2.692655,-3.52993 -2.813879,-4.20542 -3.452227,-19.23657 -0.88632,-20.87013 -0.86458,-365.28825 0.02403,-380.7448 C 21.708716,88.613475 22.521492,87.145795 35.060967,77.694255 67.992097,52.872649 136.24336,4.2662317 140.99674,2.2501001 c 2.36461,-1.0029417 5.36059,-1.31412235 9.2535,-0.9611256 5.33814,0.4840454 6.82735,1.2671475 20.47934,10.7690525 8.09742,5.635877 30.134,21.437985 48.97018,35.115796 18.83618,13.67781 34.88788,25.114447 35.67046,25.414748 0.83982,0.322269 11.40202,-6.732672 25.77632,-17.217092 44.98202,-32.809293 70.32272,-50.648074 74.77839,-52.6408224 3.53284,-1.5800259 5.64969,-1.85353669 10.5,-1.3566675 7.00549,0.7176479 3.68693,-1.40315676 48.07507,30.7235449 57.11186,41.335723 72.93895,53.334776 74.43513,56.431809 0.90232,1.867757 1.71204,8.353996 2.18099,17.470657 0.41022,7.975 0.77692,99.06046 0.81487,202.41214 l 0.069,187.91214 -2.56686,4.38003 c -1.41178,2.40901 -4.40429,5.71104 -6.65004,7.33785 L 478.69992,511 258.09996,510.89764 C 136.76998,510.84134 36.15,510.46948 34.5,510.07129 Z M 116.8,450.8 c 0.84075,-0.84075 1.2,-6.37354 1.2,-18.48095 0,-17.08989 -0.0249,-17.28708 -2.25,-17.83587 -1.2375,-0.30521 -9.45,-0.42628 -18.25,-0.26905 l -16,0.28587 -0.274536,17.46487 c -0.150995,9.60567 -0.05262,18.04317 0.218615,18.75 0.680913,1.77443 33.587391,1.85366 35.355921,0.0851 z m 97.97379,0.36097 c 0.97152,-0.61657 1.20882,-5.06241 1,-18.73469 L 215.5,414.5 199,414.21448 c -9.075,-0.15703 -17.5125,-0.036 -18.75,0.26906 -2.22514,0.54844 -2.25,0.74551 -2.25,17.83551 0,12.10741 0.35925,17.6402 1.2,18.48095 1.38529,1.38529 33.44717,1.71062 35.57379,0.36097 z m 118,0 c 0.97152,-0.61657 1.20882,-5.06241 1,-18.73469 L 333.5,414.5 l -18.5,0 -18.5,0 -0.27379,17.92628 c -0.20882,13.67228 0.0285,18.11812 1,18.73469 0.70058,0.44462 8.69879,0.8084 17.77379,0.8084 9.075,0 17.07321,-0.36378 17.77379,-0.8084 z M 430.5,433 l 0,-18.5 -16.86776,-0.27471 c -11.59128,-0.18878 -17.30014,0.0841 -18.25,0.87244 -1.87403,1.55531 -2.01836,33.86615 -0.15958,35.72493 0.89032,0.89032 5.85087,1.14854 18.25,0.95 L 430.5,451.5 l 0,-18.5 z m -313,-98.5 0,-18 -18.25,-0.27256 -18.25,-0.27256 0,17.85589 c 0,9.82075 0.310037,18.16593 0.688972,18.54487 0.378934,0.37893 8.591434,0.56643 18.25,0.41667 L 117.5,352.5 l 0,-18 z m 98.27264,-0.27215 0.27265,-18.27215 -18.77265,0.27215 L 178.5,316.5 l -0.27515,16.96328 c -0.15133,9.3298 -0.049,17.55249 0.22731,18.27265 0.39414,1.02711 4.44138,1.25059 18.77515,1.03672 L 215.5,352.5 215.77264,334.22785 Z M 333.5,334.5 l 0,-18 -18.75,-0.27207 -18.75,-0.27206 0,17.8554 c 0,9.82047 0.30982,18.16522 0.6885,18.54389 0.37867,0.37868 8.81617,0.56618 18.75,0.41667 L 333.5,352.5 l 0,-18 z m 97.27265,-0.27265 0.27264,-18.27264 -18.27264,0.27264 L 394.5,316.5 l -0.28587,16 c -0.15723,8.8 -0.0336,17.02284 0.27482,18.27297 0.56009,2.27054 0.57965,2.27268 18.28587,2 L 430.5,352.5 430.77265,334.22735 Z M 117.5,236.5 l 0,-18 L 99.25,218.22744 81,217.95488 81,236.5 l 0,18.54512 18.25,-0.27256 18.25,-0.27256 0,-18 z m 98.5,-0.0221 0,-18.52206 -18.75,0.27206 -18.75,0.27207 -0.27515,16.96328 c -0.15133,9.3298 -0.053,17.5423 0.21862,18.25 0.37794,0.98491 4.84048,1.28672 19.02515,1.28672 L 216,255 l 0,-18.52207 z m 117.5,0.0221 0,-18 -18.5,0 -18.5,0 -0.27264,18.27215 -0.27265,18.27215 18.77265,-0.27215 L 333.5,254.5 l 0,-18 z m 97.5,-0.0226 0,-18.52256 -18.25,0.27256 -18.25,0.27256 -0.27515,16.96328 c -0.15133,9.3298 -0.053,17.5423 0.21862,18.25 0.37726,0.98313 4.74809,1.28672 18.52515,1.28672 L 431,255 431,236.47744 Z M 117.5,138 l 0,-18.5 -18,0 -18,0 -0.272149,18.77264 -0.272148,18.77265 18.272148,-0.27265 L 117.5,156.5 l 0,-18.5 z m 98,0 0,-18.5 -17.92621,-0.27379 c -10.28587,-0.1571 -18.32778,0.12778 -18.8684,0.6684 -0.57487,0.57487 -0.65589,7.99991 -0.2078,19.0459 l 0.73438,18.10371 18.13401,-0.27211 L 215.5,156.5 l 0,-18.5 z m 117.97787,7.75 c 0.37134,-6.1875 0.52823,-14.625 0.34865,-18.75 l -0.32652,-7.5 -18.5,0 -18.5,0 -0.27454,17.46487 c -0.15099,9.60567 -0.0526,18.04317 0.21862,18.75 0.37634,0.98073 4.74073,1.28513 18.42589,1.28513 l 17.93273,0 0.67517,-11.25 z m 97.2942,-7.5 L 430.5,119.5 413.63224,119.22529 c -11.59128,-0.18878 -17.30014,0.0841 -18.25,0.87244 C 394.3039,120.99268 394,125.02884 394,138.45578 c 0,9.46599 0.3,17.51089 0.66667,17.87755 C 395.03333,156.7 403.36826,157 413.18873,157 l 17.8554,0 -0.27206,-18.75 z"
         id="path5872"
         inkscape:connector-curvature="0" />
      <path
         style="fill:#cccccc;fill-opacity:1"
         d="M 35.685225,510.03189 C 27.667661,508.48059 22.475032,502.13079 21.523803,492.7146 21.178512,489.29657 21.031901,397.85 21.198,289.5 L 21.5,92.5 23.919478,88.607745 C 26.828097,83.9286 53.443101,64.069587 127,11.693333 145.50139,-1.4806015 149.3146,-1.9475088 163,7.2853206 172.11911,13.437511 197.19487,31.39496 229.93484,55.219224 243.37401,64.998651 255.13259,73 256.06502,73 c 0.93244,0 11.98676,-7.493104 24.56516,-16.651341 63.47931,-46.218804 74.69663,-53.9441412 79.68724,-54.8803853 8.0562,-1.51135219 11.36112,0.2963493 45.18258,24.7136313 43.46489,31.379324 79.60823,58.161038 81.86039,60.657411 1.21595,1.347806 2.15333,4.590571 2.70608,9.361401 0.46514,4.014603 0.86547,96.026803 0.88962,204.471543 L 491,497.84452 l -3.29217,4.31633 c -1.81069,2.37397 -4.80224,5.33396 -6.64788,6.57774 L 477.70423,511 258.60212,510.885 C 138.09595,510.82175 37.783351,510.43785 35.685225,510.03189 Z m 82.086925,-77.30404 0.27214,-18.77214 -18.772143,0.27214 L 80.5,414.5 80.225464,431.96487 c -0.150995,9.60567 -0.04871,18.05337 0.227305,18.77264 0.393359,1.02508 4.451832,1.24885 18.774536,1.03514 L 117.5,451.5 117.77215,432.72785 Z M 216.5,433 l 0,-18.5 -19.25,-0.27159 -19.25,-0.2716 0,18.35493 c 0,10.09521 0.30962,18.66454 0.68804,19.04297 0.37842,0.37842 9.04092,0.56592 19.25,0.41666 L 216.5,451.5 l 0,-18.5 z m 117.5,-0.0216 0,-19.0216 -19.25,0.2716 -19.25,0.27159 -0.27454,17.46487 c -0.15099,9.60567 -0.0526,18.04317 0.21862,18.75 0.37781,0.98455 4.94444,1.28513 19.52454,1.28513 L 334,452 l 0,-19.02159 z m 97.5,0.0216 0,-18.5 -18.5,0 -18.5,0 -0.27454,17.46487 c -0.15099,9.60567 -0.0487,18.05337 0.22731,18.77264 0.39336,1.02508 4.45183,1.24885 18.77454,1.03514 L 431.5,451.5 431.5,433 Z M 117.77207,334.25 117.5,315.5 l -18.5,0 -18.5,0 -0.274536,17.46487 c -0.150995,9.60567 -0.05262,18.04317 0.218615,18.75 C 80.82127,352.69781 85.299902,353 99.49068,353 l 18.55345,0 -0.27206,-18.75 z M 216.5,334 l 0,-18.5 -19,0 -19,0 -0.27214,18.77167 -0.27215,18.77167 19.27215,-0.27167 L 216.5,352.5 216.5,334 Z M 333.77207,334.25 333.5,315.5 315.63085,315.22644 c -12.33169,-0.18879 -18.29706,0.0816 -19.25,0.87245 -1.07659,0.89348 -1.38085,4.9383 -1.38085,18.35689 0,9.46599 0.3,17.51089 0.66667,17.87755 C 296.03333,352.7 304.81826,353 315.18873,353 l 18.8554,0 -0.27206,-18.75 z M 431.5,334 l 0,-18.5 -18.5,0 -18.5,0 -0.27215,18.77215 -0.27214,18.77214 18.77214,-0.27214 L 431.5,352.5 431.5,334 Z M 116.41821,255.39301 C 117.78136,254.86992 118,252.2406 118,236.37095 l 0,-18.41508 -18.75,0.27206 L 80.5,218.5 80.226208,236.42628 c -0.20882,13.67228 0.02849,18.11812 1,18.73469 1.471764,0.93405 32.823882,1.14077 35.192002,0.23204 z m 99.48347,-0.77454 c 0.78963,-0.95144 1.06123,-6.7885 0.87244,-18.75 L 216.5,218.5 l -19.25,-0.27159 -19.25,-0.2716 0,18.43826 c 0,13.81494 0.31343,18.56474 1.25,18.94265 0.6875,0.27741 8.9574,0.53991 18.37756,0.58333 13.42586,0.0619 17.37535,-0.21963 18.27412,-1.30258 z m 117.87046,-17.89014 0.27215,-18.77167 -19.27215,0.27167 L 295.5,218.5 l -0.27412,17.36847 c -0.1912,12.11449 0.0782,17.79305 0.89071,18.77202 0.93735,1.12943 4.70152,1.35042 19.27413,1.13152 L 333.5,255.5 l 0.27214,-18.77167 z m 97.00165,18.43264 c 0.97152,-0.61657 1.20882,-5.06241 1,-18.73469 L 431.5,218.5 412.75,218.22793 394,217.95587 l 0,18.43873 c 0,13.81531 0.31343,18.56521 1.25,18.94312 2.09822,0.84665 34.16262,0.68711 35.52379,-0.17675 z M 117.77167,138.22786 118.04334,118.95571 99.27167,119.22786 80.5,119.5 80.226045,137.46638 c -0.150676,9.88151 -0.04839,18.5542 0.227305,19.27265 0.392614,1.02313 4.461825,1.24717 18.773955,1.03362 L 117.5,157.5 117.77167,138.22786 Z M 431.5,138.5 l 0,-19 -18.5,0 -18.5,0 -0.27396,17.96638 c -0.15067,9.88151 -0.0484,18.5542 0.22731,19.27265 0.39261,1.02313 4.46183,1.24717 18.77396,1.03362 L 431.5,157.5 l 0,-19 z m -215.02069,6.25 c 0.37438,-6.7375 0.53219,-15.175 0.35069,-18.75 l -0.33,-6.5 -19.25,-0.27159 -19.25,-0.2716 0,18.35493 c 0,10.09521 0.3,18.65493 0.66667,19.02159 C 179.03333,156.7 187.53802,157 197.56597,157 l 18.23264,0 0.6807,-12.25 z m 117.29276,-7 0.27206,-18.75 -18.96305,0 c -12.55518,0 -19.18967,0.36668 -19.6337,1.08513 -0.36885,0.59683 -0.34323,9.15657 0.0569,19.02164 l 0.7276,17.93651 18.63403,-0.27164 L 333.5,156.5 l 0.27207,-18.75 z"
         id="path5870"
         inkscape:connector-curvature="0" />
      <path
         style="fill:#cccccc;fill-opacity:1"
         d="M 37.344319,510.07014 C 31.684631,509.14467 25.705877,504.97058 23.406287,500.33924 21.550247,496.6012 21.5,491.18878 21.5,295 21.5,107.92713 21.620663,93.279823 23.185262,90.424849 25.796666,85.659738 30.03997,82.267922 67,55.402246 121.59328,15.719232 141.21994,2.0888079 144.75,1.4060288 152.70242,-0.13211816 155.64588,1.7188885 221.84848,49.889752 240.07296,63.150388 255.47145,74 256.06736,74 256.66327,74 273.42939,62.17068 293.32541,47.712623 351.8641,5.1736811 358.0777,1 362.86917,1 c 7.1998,0 12.69672,3.6371405 81.21674,53.738622 36.35579,26.583164 41.33964,30.455022 43.55631,33.838092 1.26397,1.929057 1.89477,6.082423 2.46908,16.257146 0.42426,7.51638 0.78183,98.71614 0.79461,202.66614 0.018,146.48394 -0.25,189.46864 -1.19135,191.08327 -1.89646,3.2529 -4.91476,6.66891 -8.54129,9.66673 l -3.32672,2.75 -218.17328,-0.12517 c -119.9953,-0.0688 -220.043327,-0.43095 -222.328951,-0.80469 z m 81.429761,-76.56595 c 0.24429,-16.04075 0.0877,-18.13207 -1.44113,-19.25 -1.7952,-1.31268 -32.565349,-1.86971 -35.751163,-0.6472 C 80.21655,414.13088 80,416.80343 80,433.12858 l 0,18.91461 19.25,-0.2716 19.25,-0.27159 0.27408,-17.99581 z M 217,433.10699 c 0,-16.30547 -0.21664,-18.97614 -1.58179,-19.5 -2.72496,-1.04567 -34.4252,-0.67362 -36.48395,0.42819 -1.80112,0.96393 -1.93426,2.26028 -1.93426,18.83334 0,9.78898 0.3,18.09815 0.66667,18.46481 0.36666,0.36667 9.36666,0.66667 20,0.66667 L 217,452 l 0,-18.89301 z m 117.77356,0.52386 c 0.18879,-12.33169 -0.0816,-18.29706 -0.87245,-19.25 C 333.00723,413.30378 328.95012,413 315.45934,413 c -9.51267,0 -18.00757,0.27314 -18.87755,0.60699 C 295.21655,414.13088 295,416.80339 295,433.12813 l 0,18.91415 19.75,-0.27114 19.75,-0.27114 0.27356,-17.86915 z M 432,433.10699 c 0,-16.30547 -0.21664,-18.97614 -1.58179,-19.5 C 429.54823,413.27314 421.48037,413 412.48964,413 c -13.52738,0 -16.61781,0.27103 -17.91821,1.57143 -1.3004,1.3004 -1.57143,4.39083 -1.57143,17.91821 0,8.99073 0.27314,17.05859 0.60699,17.92857 0.52386,1.36515 3.19453,1.58179 19.5,1.58179 L 432,452 432,433.10699 Z M 117.8,352.8 c 1.26596,-1.26596 1.78729,-33.10597 0.59301,-36.21821 C 117.86915,315.21664 115.19848,315 98.893011,315 L 80,315 l 0,18.83333 c 0,10.35834 0.3,19.13334 0.666667,19.5 C 81.925184,354.59185 116.5048,354.0952 117.8,352.8 Z m 98.7,-18.3 0,-19 -18.92694,-0.27272 c -14.47323,-0.20854 -19.11702,0.0268 -19.73469,1 -1.36788,2.1553 -1.02225,35.18884 0.38288,36.59397 0.89429,0.89429 6.18185,1.14863 19.75,0.95 L 216.5,353.5 l 0,-19 z m 117.40111,18.11915 c 0.79087,-0.95294 1.06124,-6.91831 0.87245,-19.25 L 334.5,315.5 l -19.5,0 -19.5,0 -0.27324,18.42662 c -0.20868,14.07276 0.0276,18.61755 1,19.23469 0.70028,0.44443 9.20564,0.81496 18.9008,0.82338 13.78737,0.012 17.87721,-0.28551 18.77355,-1.36554 z m 97.87048,-18.36915 0.2716,-19.25 -18.91461,0 c -16.32515,0 -18.9977,0.21655 -19.52159,1.58179 -1.05258,2.74297 -0.67218,33.42789 0.44017,35.50633 0.98914,1.84823 2.05562,1.94154 19.25,1.68426 L 431.5,353.5 431.77159,334.25 Z M 118.39301,254.41821 C 118.72686,253.54823 119,245.27833 119,236.04066 c 0,-13.06551 -0.30668,-17.05029 -1.38085,-17.94177 -0.95294,-0.79087 -6.91831,-1.06124 -19.250001,-0.87245 L 80.5,217.5 80.226045,235.46638 c -0.150676,9.88151 -0.0523,18.54401 0.218615,19.25 0.376274,0.98056 4.842585,1.28362 18.916966,1.28362 15.878154,0 18.508284,-0.2186 19.031384,-1.58179 z M 216.5,236.5 l 0,-19 -18.3698,-0.27302 c -12.70187,-0.18878 -18.79565,0.0804 -19.75,0.87244 -1.07335,0.89081 -1.3802,4.87954 -1.3802,17.94124 0,9.23767 0.2768,17.5171 0.61512,18.39874 0.53983,1.40678 2.95716,1.56979 19.75,1.33179 L 216.5,255.5 l 0,-19 z m 118.28518,2 c 0.15684,-9.35 0.0333,-18.02218 -0.27445,-19.27151 l -0.55963,-2.2715 -19.22555,0.2715 L 295.5,217.5 l -0.27396,17.96638 c -0.15067,9.88151 -0.0486,18.55376 0.22694,19.27168 0.39314,1.02451 4.64664,1.24685 19.77395,1.03361 L 334.5,255.5 l 0.28518,-17 z m 96.71482,-2 0,-19 -17.86915,-0.27356 c -12.33169,-0.18879 -18.29706,0.0816 -19.25,0.87245 -1.07417,0.89148 -1.38085,4.87626 -1.38085,17.94177 0,9.23767 0.27688,17.51731 0.61529,18.39919 0.53941,1.40568 2.91353,1.56993 19.25,1.33179 L 431.5,255.5 l 0,-19 z M 118.77302,139.1302 c 0.1912,-12.86431 -0.0757,-18.79004 -0.89071,-19.77201 -0.93596,-1.12776 -4.70833,-1.34898 -19.273025,-1.1302 L 80.5,118.5 80.228788,138.27167 79.957576,158.04333 99.228788,157.77167 118.5,157.5 118.77302,139.1302 Z M 215.8,156.8 c 0.84539,-0.84539 1.2,-6.57622 1.2,-19.39301 0,-15.66716 -0.21961,-18.27728 -1.58179,-18.8 C 214.54823,118.27314 206.05333,118 196.54066,118 c -13.96524,0 -17.52974,0.28192 -18.51081,1.46404 -0.91406,1.10137 -1.03767,5.86992 -0.49902,19.25 0.39381,9.78228 0.91204,18.12346 1.15161,18.53596 0.76695,1.32053 35.77141,0.89615 37.11756,-0.45 z m 117.63398,0.30682 c 0.30361,-0.49124 0.85024,-8.7982 1.21473,-18.4599 0.51243,-13.58281 0.37285,-17.91601 -0.61544,-19.10683 C 332.9725,118.26193 329.81352,118 315.45934,118 c -9.51267,0 -18.00757,0.27314 -18.87755,0.60699 -1.36218,0.52272 -1.58179,3.13284 -1.58179,18.8 0,12.81679 0.35461,18.54762 1.2,19.39301 1.43696,1.43696 36.35767,1.72472 37.23398,0.30682 z M 431.77114,138.25 431.5,118.5 413.50419,118.22592 c -16.04075,-0.24429 -18.13207,-0.0877 -19.25,1.44113 -1.31308,1.79575 -1.87243,33.55827 -0.6472,36.75116 0.52389,1.36524 3.1964,1.58179 19.52114,1.58179 l 18.91415,0 -0.27114,-19.75 z"
         id="path5868"
         inkscape:connector-curvature="0" />
      <path
         style="fill:#cccccc;fill-opacity:1"
         d="M 40.5,510.02934 C 29.303141,508.72862 23.647723,503.80595 22.38374,494.26032 21.964226,491.09215 21.62232,400.525 21.623948,293 c 0.0023,-152.51068 0.275473,-196.446149 1.242253,-199.802747 0.724321,-2.514795 2.798793,-5.839095 4.992262,-8 C 32.319999,80.80195 103.61248,28.866519 133.86879,7.9704217 142.22621,2.1984837 143.7584,1.5 148.06228,1.5 c 4.44216,0 5.90514,0.7365765 18.45077,9.289541 7.49434,5.109248 30.13227,21.278042 50.30651,35.930653 20.17424,14.652612 37.59095,26.817782 38.7038,27.033712 1.41148,0.273872 11.69349,-6.646429 34,-22.88368 42.91243,-31.236609 63.10906,-45.4296552 68.25952,-47.9689307 4.75176,-2.34270662 8.41671,-2.11342699 14.31915,0.8958063 3.87814,1.9771904 50.80853,35.7022374 89.35476,64.2119884 16.62376,12.295345 25.51529,19.513178 26.48548,21.5 2.28976,4.689094 2.87638,51.65139 2.97202,237.92519 L 491,494.36855 l -2.08792,4.31307 c -1.14836,2.37219 -4.18586,6.11136 -6.75,8.30927 L 477.5,510.98709 262,510.85672 C 143.475,510.78502 43.8,510.4127 40.5,510.02934 Z M 118.5,433 l 0,-19.5 -18.3698,-0.27302 c -12.701865,-0.18878 -18.79565,0.0804 -19.749997,0.87244 -1.874519,1.55572 -2.019077,35.86171 -0.158951,37.72183 0.894293,0.89429 6.181846,1.14863 19.75,0.95 L 118.5,452.5 l 0,-19.5 z m 98.3,18.8 c 1.84003,-1.84003 1.67655,-36.15961 -0.17958,-37.70006 -0.95568,-0.79314 -7.17798,-1.06122 -20.25,-0.87245 L 177.5,413.5 l -0.2734,18.46783 c -0.15037,10.1573 -0.052,19.0448 0.21861,19.75 0.6821,1.77752 37.58239,1.85457 39.35479,0.0822 z m 117.7,-18.8 0,-19.5 -18.99662,-0.27297 c -16.9802,-0.244 -19.12966,-0.091 -20.25,1.44113 -1.58666,2.16989 -1.76455,33.50819 -0.20673,36.41901 0.99107,1.85183 2.06648,1.94127 20.25,1.68426 L 334.5,452.5 l 0,-19.5 z m 97.3,18.8 c 1.84054,-1.84054 1.6765,-36.15965 -0.1802,-37.70058 -0.95435,-0.79203 -7.04813,-1.06122 -19.75,-0.87244 L 393.5,413.5 l -0.27272,18.92694 c -0.20854,14.47323 0.0268,19.11702 1,19.73469 2.13061,1.35221 36.18666,1.02443 37.57272,-0.36163 z M 118.77272,334.57306 c 0.20854,-14.47323 -0.0268,-19.11702 -1,-19.73469 C 115.64211,313.48616 81.586057,313.81394 80.2,315.2 c -1.271364,1.27136 -1.787072,34.10654 -0.58488,37.2394 0.539832,1.40678 2.957165,1.56979 19.75,1.33179 L 118.5,353.5 l 0.27272,-18.92694 z m 98.62029,17.84515 c 1.1964,-3.11776 0.67324,-35.95196 -0.59301,-37.21821 -1.68991,-1.68991 -36.91009,-1.68991 -38.6,0 -1.29569,1.29569 -1.79328,36.87338 -0.53333,38.13333 C 178.03333,353.7 186.98519,354 197.55968,354 c 16.60942,0 19.30896,-0.2153 19.83333,-1.58179 z m 117.37971,-17.84515 c 0.20854,-14.47323 -0.0268,-19.11702 -1,-19.73469 -0.7,-0.44426 -9.22808,-0.81464 -18.95129,-0.82306 -14.75223,-0.0128 -17.93869,0.24481 -19.25,1.55612 -1.30696,1.30696 -1.57143,4.47099 -1.57143,18.8 0,12.22989 0.35421,17.58278 1.22082,18.44939 0.89546,0.89546 6.29223,1.14864 20.25,0.95 L 334.5,353.5 l 0.27272,-18.92694 z m 97.62029,17.84515 c 1.1964,-3.11776 0.67324,-35.95196 -0.59301,-37.21821 -1.68814,-1.68814 -35.91186,-1.68814 -37.6,0 -1.29569,1.29569 -1.79328,36.87338 -0.53333,38.13333 C 394.03333,353.7 402.76019,354 413.05968,354 c 16.15348,0 18.80974,-0.21733 19.33333,-1.58179 z M 118.5,236.5 l 0,-19 -18.926944,-0.27272 c -14.473224,-0.20854 -19.117015,0.0268 -19.734687,1 -0.938348,1.47851 -1.137789,33.82887 -0.223249,36.21212 0.539832,1.40678 2.957165,1.56979 19.75,1.33179 L 118.5,255.5 l 0,-19 z m 98.89301,17.91821 c 0.90863,-2.36784 0.70207,-34.72015 -0.23107,-36.19042 -0.61818,-0.97402 -5.36102,-1.20841 -20.23469,-1 L 177.5,217.5 l -0.27396,17.96638 c -0.15067,9.88151 -0.0523,18.54401 0.21862,19.25 0.37754,0.98387 5.02862,1.28362 19.91697,1.28362 16.79001,0 19.50671,-0.21453 20.03138,-1.58179 z M 334.5,236.5 l 0,-19 -19.42725,-0.27221 c -14.87367,-0.20841 -19.61651,0.026 -20.23469,1 -0.93803,1.47798 -1.13735,33.8287 -0.22311,36.21118 0.54023,1.40782 3.00082,1.56964 20.25,1.33179 L 334.5,255.5 l 0,-19 z m 97.89301,17.91821 c 0.90881,-2.36831 0.70197,-34.7203 -0.23138,-36.19093 -0.61767,-0.97323 -5.26146,-1.20854 -19.73469,-1 L 393.5,217.5 l -0.27396,17.96638 c -0.15067,9.88151 -0.0523,18.54401 0.21862,19.25 0.37693,0.98225 4.9356,1.28362 19.41697,1.28362 16.33408,0 19.00748,-0.21651 19.53138,-1.58179 z m -314.6208,-96.25627 c 0.97402,-0.61818 1.20841,-5.36102 1,-20.23469 L 118.5,118.5 99.573056,118.22728 c -14.473224,-0.20854 -19.117015,0.0268 -19.734687,1 C 78.48477,121.36007 78.813405,156.41341 80.2,157.8 c 1.385864,1.38586 35.44198,1.71393 37.57221,0.36194 z M 431.8,157.8 c 1.38659,-1.38659 1.71523,-36.43993 0.36163,-38.57272 -0.61767,-0.97323 -5.26146,-1.20854 -19.73469,-1 L 393.5,118.5 l -0.27221,19.42725 c -0.20841,14.87367 0.026,19.61651 1,20.23469 2.13023,1.35199 36.18635,1.02392 37.57221,-0.36194 z M 217.36545,140.27806 c 0.476,-9.47207 0.57754,-18.36905 0.22566,-19.77106 l -0.63978,-2.54912 -19.72567,0.27106 L 177.5,118.5 177.21515,136 c -0.15667,9.625 -0.0332,18.52218 0.27445,19.77151 l 0.5593,2.2715 19.22555,-0.2715 L 216.5,157.5 217.36545,140.27806 Z M 334.5158,155.75 c 0.30465,-1.2375 0.42572,-10.125 0.26905,-19.75 L 334.5,118.5 315.57272,118.22728 c -11.88757,-0.17128 -19.30618,0.10618 -19.94601,0.74601 -1.00521,1.00521 -0.99093,36.62837 0.0153,38.25654 0.2618,0.42359 8.99086,0.77017 19.39792,0.77017 18.79196,0 18.92574,-0.0155 19.47584,-2.25 z"
         id="path5866"
         inkscape:connector-curvature="0" />
      <path
         style="fill:#cccccc;fill-opacity:1"
         d="m 43.925478,510.01531 c -10.058121,-0.8095 -15.817523,-3.4989 -19.224886,-8.97722 L 22.5,497.5 22.188014,303 C 22.016421,196.025 22.16869,104.79504 22.526388,100.26674 22.998526,94.289703 23.770519,91.138281 25.343502,88.766745 27.781474,85.091092 41.898151,74.333769 85.524659,42.906932 135.70148,6.7615082 144.21484,1 147.44751,1 c 5.04676,0 14.0987,6.0488863 72.90002,48.714815 C 239.51366,63.621667 255.59862,75 256.09187,75 c 0.49325,0 17.21186,-11.850549 37.15247,-26.334553 48.14646,-34.971522 60.43454,-43.5552292 65.485,-45.7438623 7.99997,-3.46681444 9.20096,-2.75246829 70.98166,42.2200413 29.51577,21.485649 54.73355,40.465117 56.62555,42.617666 1.34383,1.528892 2.07205,4.725533 2.71433,11.915086 0.48277,5.404092 0.89382,96.810472 0.91345,203.125282 0.0309,167.46603 -0.15924,193.67658 -1.42276,196.11996 -0.80214,1.55116 -3.77581,4.90382 -6.60816,7.45034 L 476.78369,511 264.64185,510.8527 C 147.96383,510.7717 48.641465,510.39486 43.925478,510.01531 Z m 75.039342,-58.94957 c 1.10493,-2.06459 1.43818,-31.9597 0.39947,-35.83647 l -0.6084,-2.27074 -19.627943,0.27074 L 79.5,413.5 79.226599,431.96783 c -0.15037,10.1573 -0.05199,19.0448 0.218615,19.75 0.376305,0.98063 4.959522,1.28217 19.488217,1.28217 17.757529,0 19.063699,-0.12613 20.031389,-1.93426 z M 217.5,433 l 0,-19.5 -20.25,-0.27071 -20.25,-0.2707 0,19.35404 c 0,10.64472 0.30923,19.66327 0.68718,20.04122 0.37795,0.37795 9.49045,0.56545 20.25,0.41667 L 217.5,452.5 l 0,-19.5 z m 117.86971,17.75 c 0.78762,-2.93897 0.78318,-32.57743 -0.005,-35.52032 l -0.60829,-2.27031 -20.12805,0.27031 L 294.5,413.5 l -0.2734,18.46783 c -0.15037,10.1573 -0.052,19.0448 0.21861,19.75 0.37741,0.9835 5.13094,1.28217 20.40677,1.28217 19.80701,0 19.91802,-0.0122 20.51773,-2.25 z M 432.5,433 l 0,-19.5 -19.5,0 -19.5,0 -0.2734,18.46783 c -0.15037,10.1573 -0.0482,19.05455 0.22693,19.77167 0.39243,1.02266 4.65679,1.24526 19.7734,1.03217 L 432.5,452.5 432.5,433 Z M 119.36971,351.75 c 0.99466,-3.71156 0.70667,-32.41891 -0.35319,-35.20655 L 118.03304,313.9567 98.766519,314.22835 79.5,314.5 79.226599,332.96783 c -0.15037,10.1573 -0.05199,19.0448 0.218615,19.75 0.37682,0.98197 5.037631,1.28217 19.90677,1.28217 19.288496,0 19.418676,-0.0146 20.017726,-2.25 z M 217.5,334 l 0,-19.5 -20,0 -20,0 -0.27121,19.77077 -0.27121,19.77078 20.27121,-0.27078 L 217.5,353.5 l 0,-19.5 z m 117.86971,17.75 c 1.2064,-4.50165 0.69241,-34.28278 -0.62272,-36.08133 -1.12144,-1.53367 -3.30008,-1.68498 -20.75,-1.44113 L 294.5,314.5 l -0.2734,18.46783 c -0.15037,10.1573 -0.052,19.0448 0.21861,19.75 0.37741,0.9835 5.13094,1.28217 20.40677,1.28217 19.80701,0 19.91802,-0.0122 20.51773,-2.25 z M 432.5,334 l 0,-19.5 -19.5,0 -19.5,0 -0.27121,19.77121 -0.27121,19.77121 19.77121,-0.27121 L 432.5,353.5 432.5,334 Z M 119.08775,254.2692 c 0.61811,-1.62575 0.91159,-9.53211 0.72525,-19.53827 -0.25346,-13.61018 -0.59835,-16.98752 -1.813,-17.75389 -2.29688,-1.4492 -36.328576,-1.24846 -37.8,0.22296 -1.744426,1.74443 -1.697555,38.43257 0.05,39.13772 0.6875,0.27741 9.473638,0.53991 19.524751,0.58333 L 118.0495,257 l 1.03825,-2.7308 z m 97.33046,2.12381 c 1.36433,-0.52354 1.58179,-3.17691 1.58179,-19.3 0,-13.20567 -0.35226,-19.04527 -1.2,-19.89301 -1.26652,-1.26652 -35.09521,-1.79142 -38.21821,-0.59301 C 177.2153,217.13136 177,219.8309 177,236.44032 c 0,10.57449 0.3,19.52635 0.66667,19.89301 0.83318,0.83319 36.5923,0.88826 38.75154,0.0597 z m 118.54661,-1.32727 C 335.56191,253.95007 336,245.93943 336,236.13717 c 0,-14.11604 -0.26615,-17.26046 -1.57143,-18.56574 -1.31363,-1.31363 -4.5619,-1.57143 -19.8,-1.57143 -12.84444,0 -18.58301,0.35444 -19.42857,1.2 -1.68991,1.68991 -1.68991,36.91009 0,38.6 0.84807,0.84807 6.70329,1.2 19.96482,1.2 17.52876,0 18.833,-0.12741 19.8,-1.93426 z m 96.45339,1.32727 c 1.36433,-0.52354 1.58179,-3.17691 1.58179,-19.3 0,-13.20567 -0.35226,-19.04527 -1.2,-19.89301 -1.26625,-1.26625 -34.10045,-1.78941 -37.21821,-0.59301 C 393.2153,217.13136 393,219.8309 393,236.44032 c 0,10.57449 0.3,19.52635 0.66667,19.89301 0.83319,0.8332 35.5926,0.88815 37.75154,0.0597 z M 118.96482,157.06574 c 1.10565,-2.06594 1.44058,-32.95072 0.39947,-36.83647 l -0.6084,-2.27074 -19.627943,0.27074 L 79.5,118.5 79.227129,137.46921 c -0.15008,10.43306 -0.0517,19.54556 0.218615,20.25 C 79.821368,158.69807 84.41538,159 98.933431,159 c 17.757529,0 19.063699,-0.12613 20.031389,-1.93426 z m 97.48547,0.34111 c 1.36446,-1.36445 1.55415,-4.27136 1.32143,-20.25 L 217.5,118.5 l -20.25,-0.27071 -20.25,-0.2707 0,19.3207 c 0,13.69389 0.34948,19.67019 1.2,20.52071 0.84308,0.84308 6.47302,1.2 18.92857,1.2 14.8861,0 17.98401,-0.25543 19.32172,-1.59315 z M 333.7874,157.75 c 0.8253,-0.99935 1.80674,-29.40063 1.31385,-38.02071 -0.0939,-1.6421 -1.57191,-1.75104 -20.35125,-1.5 L 294.5,118.5 l 0,19.28749 c 0,16.0568 0.25125,19.44616 1.5,20.23469 2.36643,1.49431 36.5318,1.24822 37.7874,-0.27218 z M 432.5,138.5 l 0,-20 -19.75,-0.27114 -19.75,-0.27114 0,19.85447 c 0,10.91996 0.30942,20.1639 0.6876,20.54208 0.37818,0.37818 9.26568,0.56568 19.75,0.41667 L 432.5,158.5 l 0,-20 z"
         id="path5864"
         inkscape:connector-curvature="0" />
      <path
         style="fill:#cccccc;fill-opacity:1"
         d="M 48.870731,509.63567 C 34.145307,508.49176 33.025939,508.25716 29.514626,505.57895 21.920892,499.78693 22.554826,516.52396 22.22048,313 22.055585,212.625 22.282499,121.725 22.724732,111 23.428631,93.929117 23.776139,91.154534 25.514396,88.726732 29.549757,83.090595 134.67484,6.8530076 143.97148,2.8206691 l 4.47147,-1.93946503 6.02853,3.07032423 C 160.4895,7.0165042 184.14767,23.683518 229.5,56.808588 c 13.2,9.641201 24.9,17.699059 26,17.906351 1.36647,0.257509 10.55261,-5.856395 29,-19.301172 32.51785,-23.699576 65.54637,-47.1821783 70.92283,-50.4246819 5.72573,-3.4531499 12.10376,-3.1277998 18.83819,0.9609552 4.60443,2.7955458 75.55266,54.1420077 101.93801,73.7743057 5.33447,3.969165 10.24813,8.242437 10.91925,9.496159 2.34321,4.377373 2.7617,37.168095 2.82157,221.079155 0.0661,203.23105 0.54567,187.19986 -5.80401,194.03962 -5.9857,6.44768 11.81812,5.92936 -214.12253,6.2337 -154.15362,0.20764 -209.41921,-0.0266 -221.142579,-0.93731 z M 118.06574,452.96482 C 119.87351,451.99733 120,450.69172 120,433 c 0,-17.69172 -0.12649,-18.99733 -1.93426,-19.96482 -2.06012,-1.10254 -34.753386,-1.47601 -37.483953,-0.42819 C 79.213064,413.13222 79,415.88231 79,433.02366 c 0,14.91207 0.309041,19.93437 1.25,20.31406 2.458685,0.9921 35.88103,0.66252 37.81574,-0.3729 z m 97.68426,0.40489 c 2.23716,-0.59953 2.25,-0.71584 2.25,-20.37935 0,-17.11098 -0.21319,-19.85819 -1.58179,-20.38337 -2.73587,-1.04985 -36.42255,-0.67504 -38.48395,0.42819 -1.80472,0.96586 -1.93426,2.26703 -1.93426,19.42858 0,15.38792 0.25677,18.65015 1.57143,19.96481 1.30776,1.30776 4.45381,1.56914 18.75,1.55778 9.44821,-0.008 18.19107,-0.285 19.42857,-0.61664 z m 118.31574,-0.40489 c 1.80685,-0.967 1.93426,-2.27124 1.93426,-19.8 0,-13.26153 -0.35193,-19.11675 -1.2,-19.96482 -1.26676,-1.26676 -36.09025,-1.79332 -39.21821,-0.59301 C 294.21484,413.13154 294,415.84121 294,432.5573 c 0,17.36724 0.17878,19.44745 1.75,20.3626 2.3357,1.36042 35.78443,1.39963 38.31574,0.0449 z m 97.35247,0.42819 C 432.78685,452.86782 433,450.11977 433,433 433,415.88023 432.78685,413.13218 431.41821,412.60699 430.54823,412.27314 422.03037,412 412.48964,412 c -14.43647,0 -17.61043,0.26364 -18.91821,1.57143 C 392.26019,414.88267 392,418.09957 392,433 c 0,14.90043 0.26019,18.11733 1.57143,19.42857 1.30778,1.30779 4.48174,1.57143 18.91821,1.57143 9.54073,0 18.05859,-0.27314 18.92857,-0.60699 z M 118.8,353.8 c 1.3864,-1.3864 1.71532,-36.43979 0.36194,-38.57221 -0.61818,-0.97402 -5.36102,-1.20841 -20.234686,-1 L 79.5,314.5 79.227787,333.92725 c -0.208409,14.87367 0.02598,19.61651 1,20.23469 C 82.360214,355.51532 117.4136,355.1864 118.8,353.8 Z m 97.97221,0.36194 c 0.97402,-0.61818 1.20841,-5.36102 1,-20.23469 L 217.5,314.5 197.57245,314.22827 c -15.27409,-0.20828 -20.11603,0.0252 -20.73469,1 -1.35317,2.13208 -1.02398,37.18551 0.36224,38.57173 1.38691,1.38691 37.43771,1.71664 39.57221,0.36194 z m 118.12785,-0.54152 c 0.79314,-0.95568 1.06122,-7.17798 0.87245,-20.25 L 335.5,314.5 l -20.5,0 -20.5,0 -0.27221,19.42725 c -0.20841,14.87367 0.026,19.61651 1,20.23469 0.69971,0.44409 9.65461,0.81433 19.89977,0.82275 14.62961,0.012 18.87329,-0.28078 19.7725,-1.36427 z m 96.87215,0.54152 c 0.97402,-0.61818 1.20841,-5.36102 1,-20.23469 L 432.5,314.5 413.07275,314.22779 c -14.87367,-0.20841 -19.61651,0.026 -20.23469,1 -1.35338,2.13242 -1.02446,37.18581 0.36194,38.57221 1.3864,1.3864 36.43979,1.71532 38.57221,0.36194 z M 119.39301,255.41821 C 119.72686,254.54823 120,245.82833 120,236.04066 c 0,-13.90816 -0.30138,-18.04589 -1.37958,-18.94072 -0.95568,-0.79314 -7.17798,-1.06122 -20.250004,-0.87245 L 79.5,216.5 79.227129,235.46921 c -0.15008,10.43306 -0.0517,19.54556 0.218615,20.25 0.37615,0.98023 5.049784,1.28079 19.915882,1.28079 16.790014,0 19.506714,-0.21453 20.031384,-1.58179 z M 217.5,236.5 l 0,-20 -19.37101,-0.27202 c -13.44217,-0.18876 -19.79307,0.0783 -20.75,0.87245 C 176.30154,217.99464 176,222.1362 176,236.04066 c 0,9.78767 0.27666,18.51672 0.61479,19.39789 0.54061,1.4088 3.04449,1.56951 20.75,1.33179 L 217.5,256.5 l 0,-20 z m 117.89301,18.91821 C 335.72686,254.54823 336,245.82833 336,236.04066 c 0,-13.90446 -0.30154,-18.04602 -1.37899,-18.94023 -0.95693,-0.79418 -7.30783,-1.06121 -20.75,-0.87245 L 294.5,216.5 l -0.27287,18.96921 c -0.15008,10.43306 -0.0517,19.54556 0.21861,20.25 0.37674,0.98175 5.14338,1.28079 20.41589,1.28079 17.24595,0 20.00599,-0.21264 20.53138,-1.58179 z M 432.5,236.5 l 0,-20 -18.87042,-0.27251 c -13.07202,-0.18877 -19.29432,0.0793 -20.25,0.87245 -1.8752,1.55628 -2.01995,36.85969 -0.15876,38.72088 0.89546,0.89546 6.29223,1.14864 20.25,0.95 L 432.5,256.5 l 0,-20 z M 117.4349,159.02475 120,158.0495 120,138.72475 C 120,125.02772 119.65054,119.05054 118.8,118.2 117.53348,116.93348 83.704786,116.40858 80.581787,117.60699 79.211216,118.13293 79,120.92726 79,138.53366 c 0,18.5112 0.155753,20.36039 1.75,20.77701 3.467942,0.90627 34.17877,0.66691 36.6849,-0.28592 z m 313.3151,0.34496 c 2.23953,-0.60017 2.25,-0.69732 2.25,-20.87935 0,-17.56692 -0.21137,-20.35749 -1.58179,-20.88337 C 430.54823,117.27314 421.78906,117 411.9534,117 c -16.65697,0 -17.954,0.13261 -18.91822,1.93426 -1.17846,2.20198 -1.42093,36.94229 -0.26987,38.6658 0.40408,0.60503 1.40969,1.357 2.23469,1.67105 2.02674,0.77151 32.9211,0.85672 35.75,0.0986 z M 216.8,157.8 c 0.84997,-0.84997 1.2,-6.79845 1.2,-20.39301 0,-16.57903 -0.21543,-19.27568 -1.58179,-19.8 C 215.54823,117.27314 206.60333,117 196.54066,117 c -15.25488,0 -18.50822,0.25598 -19.57397,1.54014 -0.99158,1.19478 -1.1277,5.70652 -0.60701,20.12047 0.36916,10.21918 0.91581,18.97612 1.21478,19.45986 0.87193,1.41082 37.79592,1.10915 39.22554,-0.32047 z m 117.85208,-0.0461 c 0.42357,-0.68534 0.95511,-9.46048 1.1812,-19.50032 0.30633,-13.60289 0.0939,-18.63637 -0.83355,-19.75392 C 333.97651,117.26677 330.50056,117 315.45934,117 c -10.06267,0 -19.00757,0.27314 -19.87755,0.60699 -1.36636,0.52432 -1.58179,3.22097 -1.58179,19.8 0,13.59456 0.35003,19.54304 1.2,20.39301 1.73731,1.73731 38.37634,1.69452 39.45208,-0.0461 z"
         id="path5862"
         inkscape:connector-curvature="0" />
      <path
         style="fill:#cccccc;fill-opacity:1"
         d="m 73,510 c 5.996246,-0.44259 1.891776,-0.68227 -13.934276,-0.8137 -25.572437,-0.21236 -28.93394,-1.0212 -33.278015,-8.00725 L 23.5,497.5 22.621139,390.23314 c -0.505149,-61.65443 -0.505149,-147.82983 0,-202.65886 L 23.5,92.182288 26.595509,88.341144 C 29.719464,84.464701 54.184956,66.137084 101,32.603167 144.1078,1.7247703 142.47873,2.7219129 149.04257,3.1966979 c 5.31796,0.3846665 6.52042,1.0425927 22.53756,12.3313551 9.30593,6.558755 31.68018,22.645945 49.72055,35.749311 18.04038,13.103367 33.37426,24.044406 34.07531,24.313421 0.70104,0.269014 11.59073,-7.021964 24.19931,-16.202175 C 318.57385,30.994071 341.13088,14.878586 350.35944,8.8180913 357.80117,3.9310274 359.92942,3 363.6591,3 c 6.91035,0 5.9807,-0.6034732 63.82986,41.434321 41.37778,30.068386 56.63211,41.673186 58.90839,44.814837 1.863,2.571256 2.03922,5.030278 2.72323,38.000002 0.40223,19.38796 0.76465,109.88283 0.80538,201.09971 0.083,185.87954 0.80134,168.96071 -7.49872,176.61143 L 478.04469,509 390.27234,509.2342 C 318.99266,509.42439 310.76772,509.56829 346.5,510 c 24.2,0.29238 -29.35,0.55316 -119,0.5795 C 137.85,510.60584 68.325,510.34507 73,510 Z m 45.77173,-56.83776 c 0.97476,-0.61866 1.20828,-5.4606 1,-20.73469 L 119.5,412.5 100.12899,412.22798 c -13.442165,-0.18876 -19.793072,0.0783 -20.749999,0.87245 C 77.520319,414.64299 77.356594,450.95659 79.2,452.8 c 1.386723,1.38672 37.43758,1.71673 39.57173,0.36224 z M 217.8,452.8 c 1.84294,-1.84294 1.67973,-38.15697 -0.17842,-39.6991 -0.95812,-0.79516 -7.43771,-1.06119 -21.25,-0.87245 L 176.5,412.5 l -0.27202,19.37101 c -0.18876,13.44217 0.0783,19.79307 0.87245,20.75 1.54374,1.86009 38.85438,2.02418 40.69957,0.17899 z m 116.97173,0.36224 c 0.97476,-0.61866 1.20828,-5.4606 1,-20.73469 L 335.5,412.5 315.50265,412.22803 c -17.91963,-0.2437 -20.12751,-0.094 -21.25,1.44113 -1.5809,2.16201 -1.76969,35.49622 -0.21747,38.39658 0.96878,1.81018 2.2678,1.93328 20.25,1.91895 10.56815,-0.008 19.7871,-0.37853 20.48655,-0.82245 z M 432.8,452.8 c 1.69158,-1.69158 1.69158,-37.90842 0,-39.6 -1.69158,-1.69158 -37.90842,-1.69158 -39.6,0 -1.69158,1.69158 -1.69158,37.90842 0,39.6 1.69158,1.69158 37.90842,1.69158 39.6,0 z M 119.77202,335.12899 c 0.18876,-13.44217 -0.0783,-19.79307 -0.87245,-20.75 -1.79488,-2.16269 -37.145986,-1.98972 -39.328141,0.19244 C 78.2578,315.88506 78,319.13333 78,334.37143 c 0,13.01376 0.349132,18.5777 1.220404,19.44897 0.896566,0.89657 6.402647,1.14866 20.75,0.95 L 119.5,354.5 119.77202,335.12899 Z M 217.8,353.8 c 0.84556,-0.84556 1.2,-6.58413 1.2,-19.42857 0,-15.2381 -0.2578,-18.48637 -1.57143,-19.8 -1.3167,-1.3167 -4.60736,-1.57143 -20.3,-1.57143 -13.23333,0 -19.08067,0.3521 -19.92857,1.2 -1.2966,1.2966 -1.79593,38.87074 -0.53333,40.13333 1.26382,1.26382 39.83631,0.76369 41.13333,-0.53333 z m 117.97202,-18.67101 c 0.18876,-13.44217 -0.0783,-19.79307 -0.87245,-20.75 -1.79663,-2.16481 -38.14434,-1.99136 -40.32814,0.19244 -1.31363,1.31363 -1.57143,4.5619 -1.57143,19.8 0,13.0105 0.34924,18.57781 1.22,19.44857 0.89761,0.89761 6.51309,1.14866 21.25,0.95 l 20.03,-0.27 0.27202,-19.37101 z M 432.8,353.8 c 0.84556,-0.84556 1.2,-6.58413 1.2,-19.42857 0,-15.2381 -0.2578,-18.48637 -1.57143,-19.8 -1.31363,-1.31363 -4.5619,-1.57143 -19.8,-1.57143 -12.84444,0 -18.58301,0.35444 -19.42857,1.2 -1.2966,1.2966 -1.79593,38.87074 -0.53333,40.13333 1.26259,1.2626 38.83673,0.76327 40.13333,-0.53333 z M 118.33133,256.74699 c 1.53367,-1.12144 1.68498,-3.30008 1.44113,-20.75 L 119.5,216.5 99.572448,216.22827 c -15.274087,-0.20828 -20.116033,0.0252 -20.734687,1 -0.443924,0.69945 -0.814026,9.45209 -0.822448,19.4503 -0.01281,15.20675 0.241584,18.43547 1.556116,19.75 1.310446,1.31045 4.517256,1.57143 19.30887,1.57143 12.634261,0 18.230451,-0.3605 19.451031,-1.25301 z m 99.09724,-0.31842 c 1.31453,-1.31453 1.56893,-4.54325 1.55612,-19.75 -0.008,-9.99821 -0.3784,-18.75064 -0.82217,-19.44984 -0.6191,-0.97546 -5.56019,-1.20815 -21.23468,-1 L 176.5,216.5 l -0.27246,19.49699 c -0.24385,17.44992 -0.0925,19.62856 1.44113,20.75 1.22476,0.89557 6.91613,1.25301 19.95103,1.25301 15.24616,0 18.49519,-0.25774 19.80887,-1.57143 z m 116.90276,0.31842 c 1.53367,-1.12144 1.68498,-3.30008 1.44113,-20.75 L 335.5,216.5 315.62842,216.22845 c -13.81229,-0.18874 -20.29188,0.0773 -21.25,0.87245 -1.07956,0.89596 -1.3751,5.07431 -1.36311,19.27154 0.008,9.97016 0.34592,18.62259 0.75,19.22762 1.33405,1.99748 3.57104,2.24131 21.29356,2.32099 12.59966,0.0567 18.04285,-0.27494 19.27246,-1.17406 z m 98.09724,-0.31842 c 1.31453,-1.31453 1.56893,-4.54325 1.55612,-19.75 -0.008,-9.99821 -0.37853,-18.75085 -0.82245,-19.4503 -0.61866,-0.97476 -5.4606,-1.20828 -20.73469,-1 L 392.5,216.5 l -0.27246,19.49699 c -0.24385,17.44992 -0.0925,19.62856 1.44113,20.75 1.22058,0.89251 6.81677,1.25301 19.45103,1.25301 14.79161,0 17.99843,-0.26098 19.30887,-1.57143 z m -313.6573,-97.26605 c 0.97546,-0.6191 1.20815,-5.56019 1,-21.23468 L 119.5,117.5 100.12899,117.22798 c -13.442165,-0.18876 -19.793072,0.0783 -20.749999,0.87245 -1.86009,1.54374 -2.024177,38.85438 -0.178991,40.69957 1.386546,1.38655 37.43745,1.71682 39.57127,0.36252 z M 432.8,158.8 c 1.84519,-1.84519 1.6811,-39.15583 -0.17899,-40.69957 -0.95693,-0.79418 -7.30783,-1.06121 -20.75,-0.87245 L 392.5,117.5 l -0.27155,19.87158 c -0.18874,13.81229 0.0773,20.29188 0.87245,21.25 1.54213,1.85815 37.85616,2.02136 39.6991,0.17842 z m -215.33843,-0.73782 c 0.31879,-0.51581 0.86281,-9.40471 1.20895,-19.75313 0.54124,-16.18161 0.4154,-18.99285 -0.89902,-20.08372 -1.1471,-0.95201 -6.48531,-1.20068 -21.39992,-0.99688 L 176.5,117.5 l -0.27215,18.77434 c -0.17124,11.81232 0.11993,19.50698 0.78518,20.75 0.99723,1.86335 2.1605,1.97566 20.46314,1.97566 11.00078,0 19.65683,-0.40619 19.9854,-0.93782 z M 335.5152,156.75 c 0.30432,-1.2375 0.4254,-10.575 0.26906,-20.75 L 335.5,117.5 315.29619,117.22944 c -19.81192,-0.26531 -20.22623,-0.22867 -21.35946,1.88878 -0.8316,1.55386 -0.95314,7.23779 -0.43345,20.27056 0.3972,9.96117 0.92301,18.44872 1.16847,18.86122 0.24546,0.4125 9.41115,0.75 20.36821,0.75 19.82918,0 19.92451,-0.0105 20.47524,-2.25 z"
         id="path5860"
         inkscape:connector-curvature="0" />
      <path
         style="fill:#cccccc;fill-opacity:1"
         d="m 136.32686,510.25014 c 30.70477,-0.14685 80.65477,-0.14682 111,7e-5 30.34523,0.14689 5.22314,0.26704 -55.82686,0.267 -61.05,-4e-5 -85.87791,-0.12022 -55.17314,-0.26707 z M 38.855424,508.01205 C 32.425289,507.18533 27.794358,504.34945 25.234911,499.67116 23.604635,496.69126 23.5,484.37738 23.5,295.5 c 0,-185.63599 0.127245,-201.229314 1.664681,-204 0.915574,-1.65 3.165574,-4.40125 5,-6.113888 C 34.315486,81.510877 64.903794,59.141975 117.5,21.518727 145.16017,1.7327856 146.52952,1.1119429 154.18558,4.8860289 159.31969,7.4169035 179.07239,21.286557 222.41867,52.796898 239.97393,65.558604 255.13917,76 256.11919,76 257.09921,76 270.41081,66.876831 285.70052,55.726291 341.1061,15.3199 356.63921,4.5589769 361.11571,3.4806693 367.75439,1.8815337 369.4275,2.9253489 425,43.336664 c 42.94688,31.230192 60.80978,44.733736 61.53616,46.518547 1.90405,4.678507 2.35944,45.799889 2.4093,217.556929 L 489,495.32428 l -2.43677,4.15805 c -1.34023,2.28692 -4.17692,5.36395 -6.30376,6.83785 L 476.3925,509 260.44625,508.86888 C 141.67581,508.79677 41.959941,508.41119 38.855424,508.01205 Z M 120.02256,453 c 0.52075,-0.825 0.95371,-9.90536 0.96213,-20.17857 0.0128,-15.66126 -0.23854,-18.93242 -1.55612,-20.25 C 118.11644,411.2593 114.88796,411 99.86283,411 89.37124,411 81.062029,411.43162 79.934259,412.03518 78.12091,413.00566 78,414.32038 78,433.06741 c 0,19.79106 0.02318,20.00677 2.25,20.94183 1.2375,0.51964 10.479541,0.84264 20.53787,0.71778 14.99394,-0.18613 18.45841,-0.49719 19.23469,-1.72702 z m 97.72744,0.69098 c 0.93104,-0.60258 1.25,-5.88832 1.25,-20.71481 0,-18.65683 -0.12136,-19.97075 -1.93426,-20.94099 C 215.93241,411.42865 207.47342,411 196.63717,411 c -15.47968,0 -18.75046,0.25615 -20.06574,1.57143 -1.31758,1.31758 -1.56896,4.58874 -1.55612,20.25 0.008,10.27321 0.34592,19.18901 0.75,19.81289 0.40408,0.62387 1.63469,1.37657 2.73469,1.67265 3.11194,0.83764 37.84628,0.29252 39.25,-0.61599 z M 336.02256,453 c 0.52075,-0.825 0.95371,-9.90536 0.96213,-20.17857 0.0128,-15.66126 -0.23854,-18.93242 -1.55612,-20.25 C 334.11182,411.25468 330.82041,411 315.1197,411 c -13.43267,0 -19.22244,0.35464 -20.45054,1.25265 -1.53492,1.12236 -1.6848,3.32787 -1.44113,21.20563 l 0.27197,19.953 2.5,0.73368 c 1.375,0.40352 10.72954,0.64848 20.78787,0.54436 15.0231,-0.15552 18.4569,-0.4571 19.23469,-1.68932 z m 95.41234,1.02475 2.5651,-0.97525 0,-19.98957 c 0,-19.12496 -0.0886,-20.03699 -2.04884,-21.08607 -1.339,-0.71661 -8.45469,-0.98865 -20.53817,-0.78518 -15.10783,0.25438 -18.66243,0.58565 -19.43584,1.81132 -1.10501,1.75115 -1.29852,37.95654 -0.21184,39.63432 0.40408,0.62387 1.63469,1.35917 2.73469,1.634 3.74987,0.93687 34.36106,0.735 36.9349,-0.24357 z M 119.42857,354.42857 c 2.18333,-2.18333 2.35729,-38.53147 0.19301,-40.32767 -0.95812,-0.79516 -7.43771,-1.06119 -21.250004,-0.87245 L 78.5,313.5 78.228454,333.37158 c -0.188745,13.81229 0.07728,20.29188 0.872445,21.25 1.796199,2.16428 38.144341,1.99032 40.327671,-0.19301 z m 98.47053,0.19301 c 0.79516,-0.95812 1.06119,-7.43771 0.87245,-21.25 L 218.5,313.5 198.0023,313.22851 c -18.38933,-0.24357 -20.62651,-0.0953 -21.75,1.44113 -0.89468,1.22355 -1.2523,6.92062 -1.2523,19.95006 0,15.24616 0.25774,18.49519 1.57143,19.80887 2.18489,2.18489 39.52981,2.3593 41.32767,0.19301 z m 117.52947,-0.19301 c 1.31758,-1.31758 1.56896,-4.58874 1.55612,-20.25 -0.008,-10.27321 -0.37828,-19.25044 -0.82189,-19.9494 -0.61954,-0.97613 -5.65981,-1.20803 -21.73469,-1 L 293.5,313.5 l -0.27197,19.99735 c -0.2437,17.91963 -0.094,20.12751 1.44113,21.25 1.2281,0.89801 7.01787,1.25265 20.45054,1.25265 15.70071,0 18.99212,-0.25468 20.30887,-1.57143 z m 97.47053,0.19301 c 0.79516,-0.95812 1.06119,-7.43771 0.87245,-21.25 L 433.5,313.5 413.50265,313.22803 c -17.91963,-0.2437 -20.12751,-0.094 -21.25,1.44113 C 391.35753,315.89331 391,321.58759 391,334.6197 c 0,15.24616 0.25774,18.49519 1.57143,19.80887 2.18333,2.18333 38.53147,2.35729 40.32767,0.19301 z M 119.8,256.8 c 1.69317,-1.69317 1.69317,-38.90683 0,-40.6 -1.267,-1.267 -37.085531,-1.79513 -40.218213,-0.59301 C 78.211547,216.1328 78,218.91903 78,236.44032 c 0,11.12449 0.3,20.52635 0.666667,20.89301 1.263819,1.26382 39.836313,0.76369 41.133333,-0.53333 z m 98.97127,-19.72784 c 0.20815,-15.67449 -0.0245,-20.61558 -1,-21.23468 -0.6992,-0.44377 -10.14294,-0.81375 -20.98609,-0.82217 -18.47653,-0.0144 -19.77983,0.10618 -20.75,1.91895 -1.37944,2.57751 -1.37008,36.57146 0.0108,39.15163 0.99358,1.85653 2.08283,1.94088 21.75,1.68426 L 218.5,257.5 218.77127,237.07216 Z M 335.8,256.8 c 1.54051,-1.54051 1.6872,-37.02114 0.16482,-39.86574 C 334.99602,215.12405 333.68658,215 315.5466,215 c -10.66066,0 -20.09483,0.27314 -20.96481,0.60699 C 293.21155,216.1328 293,218.91903 293,236.44032 c 0,11.12449 0.3,20.52635 0.66667,20.89301 1.26498,1.26499 40.83591,0.76409 42.13333,-0.53333 z m 97.97127,-19.72784 c 0.20815,-15.67449 -0.0245,-20.61558 -1,-21.23468 -0.6992,-0.44377 -9.67663,-0.81375 -19.94984,-0.82217 -15.66126,-0.0128 -18.93242,0.23854 -20.25,1.55612 C 391.2593,217.88356 391,221.11204 391,236.13717 c 0,10.61346 0.42912,18.79613 1.04619,19.94913 0.99279,1.85504 2.07737,1.94101 21.25,1.68426 L 433.5,257.5 433.77127,237.07216 Z M 120.39301,158.41821 C 120.72686,157.54823 121,148.35537 121,137.98964 121,122.18953 120.74597,118.88883 119.42857,117.57143 118.11187,116.25473 114.82121,116 99.128571,116 85.895238,116 80.047902,116.3521 79.2,117.2 77.902581,118.49742 77.401683,158.06835 78.666667,159.33333 79.033333,159.7 88.435188,160 99.559678,160 c 17.521292,0 20.307522,-0.21155 20.833332,-1.58179 z M 217.8,158.8 c 1.69468,-1.69468 1.69468,-39.90532 0,-41.6 -0.85012,-0.85012 -6.80635,-1.2 -20.42857,-1.2 -16.67475,0 -19.45171,0.22314 -20.90865,1.68008 -1.50869,1.50868 -1.60674,3.62559 -0.96118,20.75 0.3954,10.48846 1.17439,19.63242 1.7311,20.31992 1.4109,1.74239 38.82879,1.78851 40.5673,0.05 z m 116.92461,0.39136 c 0.85748,-0.54477 1.42689,-6.61965 1.89938,-20.26387 0.61116,-17.64869 0.51253,-19.64811 -1.04604,-21.20668 C 334.06953,116.21239 331.48391,116 314.62857,116 c -13.62222,0 -19.57845,0.34988 -20.42857,1.2 -1.54219,1.54219 -1.6893,38.01721 -0.16482,40.86574 0.96878,1.81018 2.2678,1.93328 20.25,1.91895 10.56815,-0.008 19.76589,-0.36542 20.43943,-0.79333 z m 99.04648,-20.06348 c 0.18873,-14.1824 -0.0763,-20.79076 -0.87244,-21.75 -1.79578,-2.16379 -38.14434,-1.98934 -40.32722,0.19355 -1.3174,1.3174 -1.57143,4.6181 -1.57143,20.41821 0,10.36573 0.27659,19.56756 0.61464,20.44851 0.54096,1.40973 3.08818,1.56937 21.25,1.33179 L 433.5,159.5 l 0.27109,-20.37212 z"
         id="path5858"
         inkscape:connector-curvature="0" />
    </g>
  </g>
</svg>
