<?xml version="1.0" encoding="UTF-8" standalone="no"?>
<svg
   xmlns:dc="http://purl.org/dc/elements/1.1/"
   xmlns:cc="http://creativecommons.org/ns#"
   xmlns:rdf="http://www.w3.org/1999/02/22-rdf-syntax-ns#"
   xmlns:svg="http://www.w3.org/2000/svg"
   xmlns="http://www.w3.org/2000/svg"
   xmlns:sodipodi="http://sodipodi.sourceforge.net/DTD/sodipodi-0.dtd"
   xmlns:inkscape="http://www.inkscape.org/namespaces/inkscape"
   version="1.1"
   x="0px"
   y="0px"
   viewBox="0 0 44.808952 87.929893"
   enable-background="new 0 0 100 100"
   xml:space="preserve"
   id="svg2"
   inkscape:version="0.91 r13725"
   sodipodi:docname="soldier_grey.svg"
   width="44.808952"
   height="87.929893"><metadata
     id="metadata10"><rdf:RDF><cc:Work
         rdf:about=""><dc:format>image/svg+xml</dc:format><dc:type
           rdf:resource="http://purl.org/dc/dcmitype/StillImage" /><dc:title></dc:title></cc:Work></rdf:RDF></metadata><defs
     id="defs8" /><sodipodi:namedview
     pagecolor="#ffffff"
     bordercolor="#666666"
     borderopacity="1"
     objecttolerance="10"
     gridtolerance="10"
     guidetolerance="10"
     inkscape:pageopacity="0"
     inkscape:pageshadow="2"
     inkscape:window-width="1029"
     inkscape:window-height="758"
     id="namedview6"
     showgrid="false"
     fit-margin-top="0"
     fit-margin-left="0"
     fit-margin-right="0"
     fit-margin-bottom="0"
     inkscape:zoom="2.36"
     inkscape:cx="-39.629934"
     inkscape:cy="44.626537"
     inkscape:window-x="19"
     inkscape:window-y="88"
     inkscape:window-maximized="0"
     inkscape:current-layer="svg2" /><path
     d="m 21.811066,8.7463554 c 0,0 1.364,0.319 1.814,0.18 0.449,-0.138 0.297,-1.513 0.039,-2.492 -0.255,-0.978 -0.701,-3.792 -2.002,-5.028 -1.302,-1.23699996 -2.452,-1.66099996 -4.349,-1.25999996 -1.895,0.406 -3.34,2.21899996 -3.971,3.62699996 -0.63,1.407 -1.097,3.663 -1.075,4.24 0.019,0.572 1.667,0.632 1.667,0.632 0,0 0.197,0.342 0.26,0.503 0.063,0.166 0.529,0.8619996 0.537,0.9499996 0.01,0.088 0.086,0.752 0.325,0.955 0.24,0.207 0.192,0.696 0.192,0.696 l -0.313,0.19 c 0,0 -1.007,0.313 -1.424,1.292 -1.317,-0.042 -3.6029995,0.831 -4.7699995,1.55 -1.172,0.72 -3.02,3.438 -3.741,4.614 -0.724,1.172 -4.222,7.664 -4.751,10.035 -0.531,2.367 -0.306,3.732 1.591,5.306 1.896,1.573 3.543,2.496 4.25,2.727 0.7,0.23 0.632,-0.01 0.922,0.212 0.29,0.226 0.972,0.207 0.972,0.207 0,0 0.583,2.436 0.739,3.003 0.158,0.563 0.3,0.918 0.3,0.918 0,0 -0.216,5.476 -0.197,7.511 0.013,2.034 -0.873,8.272 -0.656,9.615 0.221,1.337 0.743,2.348 0.641,2.86 -0.101,0.517 -0.695,1.988 -0.626,3.221 0.064,1.227 -0.166,0.834 0.009,2.126 0.176,1.287 0.166,6.312 0.514,7.673 0.35,1.366 0.377,1.693 0.542,2.071 0.167,0.383 0.706,0.9 0.8339995,0.803 0.127,-0.092 0.229,4.563 0.229,4.563 0,0 -0.8309995,3.007 -1.0439995,3.566 -0.21,0.563 -0.797,1.684 0.301,1.79 1.0939995,0.106 3.0669995,0.535 3.6269995,0.073 0.556,-0.457 0.789,-1.983 0.678,-2.592 -0.106,-0.609 -0.202,-1.509 -0.355,-2.104 -0.149,-0.6 0.166,-3.197 0.166,-3.197 l 0,-2.297 c 0,0 1.136,0.083 1.394,-0.858 0.257,-0.937 0.597,-5.854 0.629,-7.003 0.031,-1.149 0.148,-3.248 0.106,-3.511 -0.043,-0.263 0.068,-2.163 0.085,-2.717 0.016,-0.549 -0.309,-1.938 0.053,-2.602 0.365,-0.665 0.765,-4.333 0.837,-4.946 0.074,-0.614 0.198,-3.128 0.198,-3.128 l 0.523,-3.156 0.2,0.111 c 0,0 0.379,5.979 0.428,6.482 0.048,0.508 0.499,5.052 0.637,5.546 0.138,0.494 0.221,1.231 -0.038,1.836 -0.259,0.605 -0.406,3.262 -0.395,4.125 0.013,0.863 0.063,2.644 0.037,3.156 -0.024,0.508 0.029,1.315 -0.034,1.786 -0.067,0.475 0.159,2.727 0.327,3.381 0.164,0.651 0.393,1.532 0.679,1.91 0.287,0.374 1.238,0.402 1.238,0.402 0,0 -0.12,3.243 -0.168,3.894 -0.047,0.651 0.031,0.891 -0.043,1.167 -0.072,0.282 -0.603,1.532 -0.74,2.298 -0.136,0.77 -0.313,1.587 0.138,1.84 0.452,0.254 2.561,0.342 3.791,0.397 1.232,0.051 3.862,0.042 4.014,-0.004 0.158,-0.042 0.804,-0.891 0.099,-1.684 -0.707,-0.793 -2.316,-1.61 -2.359,-1.749 -0.036,-0.143 -0.986,-1.264 -1.042,-1.734 -0.053,-0.471 -0.436,-2.404 -0.436,-2.404 l 0.145,-1.896 c 0,0 1.309,-0.544 1.486,-0.733 0.176,-0.185 0.508,-5.296 0.434,-5.73 -0.074,-0.438 -0.157,-3.64 -0.21,-4.494 -0.053,-0.849 -0.26,-2.86 -0.311,-3.261 -0.05,-0.397 0.188,-2.667 0.35,-3.244 0.157,-0.577 0.691,-1.837 0.646,-2.326 -0.042,-0.489 -0.096,-1.389 0.041,-2.155 0.139,-0.77 0.036,-2.565 0.051,-3.012 0.014,-0.443 -0.113,-2.598 -0.161,-2.994 -0.051,-0.397 -0.045,-2.408 -0.087,-2.625 -0.048,-0.217 -0.084,-2.334 -0.094,-3.018 -0.005,-0.683 0.144,-1.135 -0.008,-1.684 -0.153,-0.554 -0.684,-2.791 -0.684,-2.791 0,0 0,-0.886 0.147,-1.121 0.146,-0.24 0.828,-0.521 0.906,-0.955 0.078,-0.429 0.15,-0.937 0.15,-0.937 l 0.327,0.351 c 0,0 0.31,0.415 0.559,0.605 0.254,0.189 0.442,0.549 0.83,0.849 0.391,0.305 1.557,0.618 1.992,0.545 0.435,-0.074 0.73,-0.49 0.73,-0.49 l 1.065,-0.387 0.097,-0.632 3.42,0.891 0,0 4.571,1.19 0.462,-0.383 c 2.073,0.541 3.727,0.964 3.727,0.964 0,0 0.515,-0.281 0.352,-0.623 -0.163,-0.341 -0.653,-0.466 -0.653,-0.466 l -3.453,-0.78 0.64,-1.938 -0.584,-0.212 -1.275,1.874 -3.555,-0.803 -0.199,-0.72 c 0,0 0.2,-0.208 0.111,-0.364 -0.088,-0.157 -1.797,-0.613 -1.797,-0.613 0,0 0.371,-1.015 0.352,-1.085 -0.018,-0.073 -0.475,-0.129 -0.634,-0.036 -0.157,0.087 -0.433,0.682 -0.646,0.738 -0.213,0.06 -0.714,0.06 -0.894,-0.088 -0.175,-0.148 -0.525,-0.582 -0.561,-0.71 -0.034,-0.125 -0.117,-0.757 -0.288,-1.366 -0.165,-0.604 -1.422,-4.853 -1.578,-6.846 -0.156,-1.998 -0.406,-4.877 -0.549,-5.933 -0.139,-1.057 -0.798,-3.216 -1.167,-3.663 -0.364,-0.448 -1.827,-1.44 -1.827,-1.44 l -0.146,-0.535 -3.671,-1.938 -0.154,0.272 c 0,0 -1.278,-1.246 -1.356,-1.301 -0.074,-0.051 -0.249,-0.217 -0.269,-0.249 -0.017,-0.037 0.383,-1.449 0.48,-1.841 0.097,-0.3919996 0.227,-0.4519996 0.707,-1.4349996 l 0,0 z m 18.33,29.4349996 0.587,-0.004 -0.122,0.521 -0.571,-0.06 c 0,0 0.057,-0.369 0.106,-0.457 l 0,0 z m -7.756,-0.19 c 0.102,-0.147 0.216,-0.327 0.136,-0.295 -0.048,0.014 1.382,0.401 3.265,0.899 l -0.068,0.277 -3.333,-0.881 0,0 z m 3.907,0.739 c 0.813,0.212 1.685,0.443 2.55,0.664 l -0.076,0.287 -2.533,-0.669 0.059,-0.282 0,0 z m 3.059,0.798 c 0.323,0.083 0.646,0.171 0.959,0.25 l -0.253,0.245 -0.771,-0.203 0.065,-0.292 0,0 z m -6.316,-2.648 2.066,0.453 -0.209,0.373 -2.037,-0.489 0.18,-0.337 0,0 z m 10.509,3.013 0.526,0.06 -0.234,0.526 -0.457,-0.116 c 0,0 0.146,-0.475 0.165,-0.47 l 0,0 z m -37.9889995,-9.744 c 0.801,-0.24 0.976,-0.757 1.174,-1.195 0.2,-0.434 1.841,-3.294 1.841,-3.294 l 0.274,-0.48 c 0,0 0.064,1.149 -0.127,1.781 -0.189,0.627 -0.22,2.995 -0.13,3.321 0.091,0.323 -0.014,0.826 0.051,1.172 0.068,0.346 0.162,0.683 0.162,0.683 0,0 -0.549,0.11 -0.909,-0.144 -0.358,-0.249 -1.583,-0.821 -1.819,-1.075 -0.24,-0.253 -0.549,-0.382 -0.517,-0.769 z"
     id="path4"
     inkscape:connector-curvature="0"
     style="clip-rule:evenodd;fill-rule:evenodd;fill:#cccccc;fill-opacity:1" /></svg>