<?xml version="1.0" encoding="UTF-8" standalone="no"?>
<svg
   xmlns:dc="http://purl.org/dc/elements/1.1/"
   xmlns:cc="http://creativecommons.org/ns#"
   xmlns:rdf="http://www.w3.org/1999/02/22-rdf-syntax-ns#"
   xmlns:svg="http://www.w3.org/2000/svg"
   xmlns="http://www.w3.org/2000/svg"
   xmlns:sodipodi="http://sodipodi.sourceforge.net/DTD/sodipodi-0.dtd"
   xmlns:inkscape="http://www.inkscape.org/namespaces/inkscape"
   enable-background="new 0 0 141.732 141.732"
   height="141.73199"
   id="Livello_1"
   version="1.1"
   viewBox="0 0 112.297 141.732"
   width="112.297"
   xml:space="preserve"
   inkscape:version="0.91 r13725"
   sodipodi:docname="train_grey.svg"><metadata
     id="metadata11"><rdf:RDF><cc:Work
         rdf:about=""><dc:format>image/svg+xml</dc:format><dc:type
           rdf:resource="http://purl.org/dc/dcmitype/StillImage" /><dc:title></dc:title></cc:Work></rdf:RDF></metadata><defs
     id="defs9" /><sodipodi:namedview
     pagecolor="#ffffff"
     bordercolor="#666666"
     borderopacity="1"
     objecttolerance="10"
     gridtolerance="10"
     guidetolerance="10"
     inkscape:pageopacity="0"
     inkscape:pageshadow="2"
     inkscape:window-width="1006"
     inkscape:window-height="590"
     id="namedview7"
     showgrid="false"
     inkscape:zoom="1.6651145"
     inkscape:cx="-33.2265"
     inkscape:cy="70.866002"
     inkscape:window-x="210"
     inkscape:window-y="30"
     inkscape:window-maximized="0"
     inkscape:current-layer="Livello_1"
     fit-margin-top="0"
     fit-margin-left="0"
     fit-margin-right="0"
     fit-margin-bottom="0" /><g
     id="Livello_22"
     style="fill:#cccccc;fill-opacity:1"
     transform="translate(-15.51,0)"><path
       d="m 101.734,59.837 c 0,3.005 -2.433,5.439 -5.439,5.439 -3.005,0 -5.439,-2.434 -5.439,-5.439 0,-3.007 2.435,-5.44 5.439,-5.44 3.004,0 5.439,2.434 5.439,5.44 m 0,-16.32 -27.2,0 0,-27.198 27.2,0 0,27.198 z M 85.415,8.158 c 0,1.545 -1.218,2.794 -2.718,2.794 l -21.76,0 -0.038,0 c -1.523,0 -2.758,-1.233 -2.758,-2.758 0,-1.521 1.235,-2.761 2.758,-2.761 0.015,0 0.024,0.004 0.038,0.004 l 0,-0.074 21.759,0 0.002,0 c 1.499,0 2.717,1.25 2.717,2.795 m -16.319,35.359 -27.2,0 0,-27.198 27.202,0 -0.002,27.198 0,0 z m -28.002,16.32 c 0,-3.007 2.436,-5.44 5.439,-5.44 3.007,0 5.443,2.433 5.443,5.44 0,3.005 -2.436,5.439 -5.443,5.439 -3.004,0 -5.439,-2.433 -5.439,-5.439 m 12.193,27.198 36.743,0 6.455,11.177 -49.651,0 6.453,-11.177 z m -12.734,22.056 62.212,0 6.28,10.881 -74.775,0 6.283,-10.881 z m 66.624,-30.215 0,-70.718 C 107.177,3.65 103.522,0 99.015,0 L 99.013,0 44.618,0 44.617,0 c -4.507,0 -8.16,3.649 -8.16,8.157 l 0,70.718 c 0,4.508 3.653,8.158 8.16,8.158 l 2.471,0 -31.578,54.699 6.199,0 6.281,-10.883 87.337,0 6.281,10.883 6.199,0 -31.579,-54.697 2.789,0 c 4.504,0 8.16,-3.651 8.16,-8.159 m 1.188,19.335 0.257,0.443 0,-0.443 -0.257,0 z"
       id="path4"
       style="fill:#cccccc;fill-opacity:1"
       inkscape:connector-curvature="0" /></g><g
     id="Livello_1_1_"
     transform="translate(-15.51,0)" /></svg>