<?xml version="1.0" encoding="UTF-8" standalone="no"?>
<!-- Created with Inkscape (http://www.inkscape.org/) -->

<svg
   xmlns:dc="http://purl.org/dc/elements/1.1/"
   xmlns:cc="http://creativecommons.org/ns#"
   xmlns:rdf="http://www.w3.org/1999/02/22-rdf-syntax-ns#"
   xmlns:svg="http://www.w3.org/2000/svg"
   xmlns="http://www.w3.org/2000/svg"
   xmlns:sodipodi="http://sodipodi.sourceforge.net/DTD/sodipodi-0.dtd"
   xmlns:inkscape="http://www.inkscape.org/namespaces/inkscape"
   width="123.81908mm"
   height="143.93858mm"
   viewBox="0 0 438.72904 510.0186"
   id="svg5346"
   version="1.1"
   inkscape:version="0.91 r13725"
   sodipodi:docname="user_grey.svg">
  <defs
     id="defs5348" />
  <sodipodi:namedview
     id="base"
     pagecolor="#ffffff"
     bordercolor="#666666"
     borderopacity="1.0"
     inkscape:pageopacity="0.0"
     inkscape:pageshadow="2"
     inkscape:zoom="0.35"
     inkscape:cx="-144.20691"
     inkscape:cy="195.00931"
     inkscape:document-units="px"
     inkscape:current-layer="layer1"
     showgrid="false"
     fit-margin-top="0"
     fit-margin-left="0"
     fit-margin-right="0"
     fit-margin-bottom="0"
     inkscape:window-width="1920"
     inkscape:window-height="1017"
     inkscape:window-x="-8"
     inkscape:window-y="-8"
     inkscape:window-maximized="1" />
  <metadata
     id="metadata5351">
    <rdf:RDF>
      <cc:Work
         rdf:about="">
        <dc:format>image/svg+xml</dc:format>
        <dc:type
           rdf:resource="http://purl.org/dc/dcmitype/StillImage" />
        <dc:title></dc:title>
      </cc:Work>
    </rdf:RDF>
  </metadata>
  <g
     inkscape:label="Layer 1"
     inkscape:groupmode="layer"
     id="layer1"
     transform="translate(-97.778337,-217.3529)">
    <g
       id="g5314"
       transform="translate(60.219638,216.3529)"
       style="fill:#cccccc;fill-opacity:1">
      <path
         style="fill:#cccccc;fill-opacity:1"
         d="m 180.5,510.04733 c -9.35,-0.40735 -23.75,-1.73897 -32,-2.95915 C 87.713293,498.09778 53.797691,482.30202 40.95401,457 c -4.544088,-8.95184 -4.522556,-37.05992 0.03773,-49.24837 10.452941,-27.93799 58.639147,-62.72693 122.75281,-88.6237 10.0345,-4.05314 20.25215,-8.64252 22.70589,-10.19864 11.08506,-7.02993 15.74083,-25.8013 9.72397,-39.20556 C 195.13165,267.40068 190.98479,261.45 186.95916,256.5 162.74509,226.72584 146.8765,191.2877 140.38973,152.5 138.0836,138.71052 138.06661,110.77385 140.35656,98 145.22231,70.857856 154.92772,51.050288 171.88192,33.660516 185.23395,19.965464 199.96634,11.009502 220,4.409066 c 8.49769,-2.7997102 8.50761,-2.8004684 36.5,-2.7886906 27.32744,0.011498 28.20417,0.074477 36.5,2.6219515 36.67155,11.2610581 63.33295,37.1511451 74.99528,72.8256761 1.69588,5.187598 4.01955,14.831997 5.16371,21.431997 1.81644,10.47795 2.00704,14.53675 1.50274,32 -0.64325,22.27462 -2.18543,31.92354 -8.1626,51.07057 -9.17295,29.38432 -21.64217,52.36089 -42.13324,77.63741 -7.04316,8.688 -8.18746,11.7051 -9.03625,23.82524 -0.72208,10.31076 1.21469,18.23927 5.70466,23.35306 3.1849,3.62741 4.55437,4.26236 33.9657,15.74812 42.97839,16.784 78.53744,38.21277 99.57093,60.00393 9.24135,9.57424 13.27767,15.17663 17.62064,24.45736 2.9784,6.36469 3.08229,7.07516 3.58177,24.49616 l 0.5144,17.94136 -3.79332,7.7334 c -4.62654,9.43205 -15.54602,20.67655 -26.02965,26.80443 -18.81904,11.00007 -47.72509,19.07327 -87.8118,24.52505 -13.92534,1.89384 -21.06714,2.08636 -88.15297,2.37634 -40.15,0.17354 -80.65,-0.0177 -90,-0.4251 z"
         id="path5328"
         inkscape:connector-curvature="0" />
      <path
         style="fill:#cccccc;fill-opacity:1"
         d="m 187,510.01487 c -25.43788,-1.23375 -53.29298,-5.26225 -76,-10.9914 C 72.538281,489.3193 50.714766,475.66916 41.290061,455.42139 38.670744,449.79413 38.532997,448.75492 38.516919,434.5 c -0.0235,-20.83145 2.310696,-28.90708 11.9993,-41.5141 19.372198,-25.20752 62.339741,-52.61371 116.924511,-74.57852 9.3174,-3.7493 18.7674,-8.20723 21,-9.90649 2.62798,-2.0002 5.29336,-5.50658 7.55927,-9.94441 3.16041,-6.18975 3.49727,-7.64082 3.47183,-14.95566 -0.0355,-10.21314 -2.75871,-16.54138 -11.80518,-27.43312 C 159.06587,221.73302 141.17182,175.5979 139.31282,131.5 137.02075,77.129144 159.8938,33.625822 201.84557,12.566072 220.4658,3.21873 235.81557,0.42502642 263.5,1.3447787 286.2537,2.1007185 297.89391,4.9927285 315,14.139953 339.6488,27.32053 358.47506,50.130718 367.29383,77.5 c 5.626,17.460415 6.20954,22.100903 6.16178,49 -0.0422,23.78438 -0.1807,25.5835 -2.8477,37 -8.72223,37.33696 -21.45844,63.01823 -48.06122,96.91056 -6.51192,8.29627 -8.01484,13.30966 -7.97101,26.58944 0.0244,7.39782 0.48488,10.49577 2.08091,14 3.24268,7.11957 6.47505,9.51546 19.6925,14.59643 48.56206,18.66794 77.7163,33.7685 102.15091,52.90951 15.46137,12.11176 28.73455,27.74528 33.67597,39.6645 1.93276,4.662 2.25961,7.59557 2.60946,23.42048 l 0.39994,18.09091 -3.5303,7.01024 c -4.60042,9.13522 -11.91558,17.02352 -22.02364,23.74919 -9.45585,6.29171 -13.92255,8.35669 -29.54332,13.65805 -12.95826,4.39776 -27.8923,7.91578 -46.08811,10.857 -30.15793,4.8748 -36.23112,5.19494 -105,5.53496 -36.025,0.17812 -72.925,-0.0363 -82,-0.4764 z"
         id="path5326"
         inkscape:connector-curvature="0" />
      <path
         style="fill:#cccccc;fill-opacity:1"
         d="m 192.5,509.96883 c -20.03925,-0.95663 -34.5669,-2.54267 -55,-6.00456 C 84.553826,494.99381 54.518308,480.27753 42.667724,457.5 c -3.005954,-5.77762 -3.135021,-6.53926 -3.482387,-20.54975 -0.198405,-8.00236 0.125917,-17.22736 0.720716,-20.5 5.677663,-31.23902 51.163048,-66.08371 127.153947,-97.40799 10.208,-4.20785 20.21745,-8.91483 22.24322,-10.45997 2.27304,-1.73373 4.93014,-5.34442 6.94,-9.43064 2.98893,-6.07674 3.25556,-7.40386 3.24197,-16.13648 C 199.46734,271.53871 198.02567,268.27171 186.90193,254.5 163.28041,225.25545 146.71272,187.32832 141.43907,150.42543 139.4195,136.29325 139.39402,112.27885 141.38557,99.988107 149.75528,48.334676 180.4248,15.084229 231,2.8323762 c 3.78777,-0.9175875 12.03762,-1.2941128 26.5,-1.2094673 19.02881,0.111372 21.89865,0.3599005 30.57377,2.6476957 19.75921,5.2108824 35.31698,13.6087294 48.92201,26.4073664 20.1663,18.971012 30.82339,40.436309 35.5308,71.565449 7.49983,49.59483 -10.81612,108.91016 -47.7073,154.49781 -4.11308,5.08267 -8.03998,10.93267 -8.72644,13 -0.68646,2.06732 -1.49432,8.06295 -1.79525,13.32363 -0.85133,14.88218 2.79561,24.34638 11.02063,28.5997 1.69399,0.876 9.51825,4.00929 17.38724,6.96288 69.48047,26.07914 115.92859,58.47363 129.12758,90.05794 1.96005,4.69027 2.16696,6.9679 2.16696,23.85377 l 0,18.66838 -3.61393,6.87733 c -4.41987,8.41102 -15.07803,18.89492 -25.24627,24.83349 C 420.66192,497.2142 373.59821,507.39 320,509.97525 c -22.88286,1.10372 -104.33077,1.09962 -127.5,-0.006 z"
         id="path5324"
         inkscape:connector-curvature="0" />
      <path
         style="fill:#cccccc;fill-opacity:1"
         d="M 196.5,509.91765 C 141.9177,506.85359 98.494987,497.75636 71.783135,483.78896 58.603656,476.89752 48.811635,467.92835 43.39154,457.78318 L 39.500471,450.5 39.500235,434 c -2.67e-4,-18.74681 0.952939,-23.23476 7.218959,-33.98879 5.080648,-8.71965 23.217387,-26.84076 35.780806,-35.74998 22.10746,-15.67728 52.86229,-31.96978 83.5,-44.23449 23.36055,-9.35156 26.68115,-11.71588 31.63792,-22.52674 2.27171,-4.95464 2.75197,-7.398 2.75654,-14.02403 0.005,-6.90601 -0.42441,-8.92636 -3.08016,-14.5 -1.69714,-3.56178 -5.42762,-9.17597 -8.28997,-12.47597 -6.897,-7.95155 -19.63911,-27.19721 -25.27724,-38.17867 C 152.93654,197.26546 144.51187,170.2806 141.40098,146.74504 139.36848,131.36808 140.017,107.88266 142.85748,94 153.12935,43.796759 187.21651,10.626074 236.95441,2.4329919 249.09693,0.43281282 270.70366,0.92345008 282.5,3.4672238 335.05622,14.800493 367.94277,53.699912 372.98822,110.5 c 1.08833,12.25207 -0.28604,38.86208 -2.55065,49.38474 -7.81476,36.31179 -22.64541,67.56317 -45.60672,96.10325 -8.30469,10.32242 -9.44157,12.61991 -10.90176,22.03108 -2.03598,13.12224 1.2726,26.84802 7.68812,31.89446 1.37144,1.07878 7.98111,4.06716 14.68816,6.64085 24.85167,9.53631 39.62006,15.91827 55.87763,24.14677 40.487,20.4918 68.22777,43.99152 78.85424,66.79885 2.11551,4.54047 2.36709,6.70927 2.73741,23.59781 l 0.40779,18.59782 -3.21143,6.40218 C 455.04097,487.85536 405.32807,505.03069 315,509.9843 c -21.07249,1.15562 -97.49255,1.11264 -118.5,-0.0667 z"
         id="path5322"
         inkscape:connector-curvature="0" />
      <path
         style="fill:#cccccc;fill-opacity:1"
         d="m 202,509.90648 c -40.10746,-2.83081 -57.59279,-4.93133 -79.46098,-9.54572 -34.690615,-7.32003 -61.360231,-19.67364 -72.915248,-33.77502 -2.003021,-2.44442 -4.987433,-7.2887 -6.632026,-10.76507 -2.907353,-6.14561 -2.99019,-6.73721 -2.990957,-21.36057 -0.0011,-21.87944 2.37451,-29.34954 13.883662,-43.65625 18.951902,-23.55857 60.974189,-49.74034 114.556279,-71.3737 9.3174,-3.76183 18.7674,-8.23 21,-9.92926 2.62689,-1.99938 5.2943,-5.50766 7.55927,-9.94226 3.24181,-6.34716 3.5,-7.52419 3.5,-15.95565 C 200.5,272.20445 198.40341,267.3382 187.96119,254.5 167.029,228.7649 151.38041,195.57933 144.47532,162.2806 130.63753,95.549954 152.66202,38.760863 201.98691,13.989772 212.32439,8.798258 220.16006,6.1816389 233.39179,3.5025158 247.54889,0.63602544 257.56186,0.37188093 273,2.4576419 326.25135,9.6521359 361.19491,43.874737 371.06567,98.5 c 1.90811,10.55952 2.10402,14.34077 1.63209,31.5 -0.84654,30.78 -6.6181,53.49002 -21.22082,83.5 -7.44853,15.30744 -14.89034,26.98113 -26.60793,41.73888 -4.68964,5.90638 -9.07542,12.43138 -9.74618,14.5 -0.67075,2.06862 -1.48288,8.05173 -1.80474,13.29581 -1.1182,18.21926 3.8929,26.92304 18.68191,32.44862 45.46214,16.98589 74.65346,31.39225 99,48.85802 11.19587,8.03171 28.05251,24.46448 33.498,32.65566 7.60742,11.44319 8.63421,15.23803 9.24914,34.18299 l 0.54142,16.67997 -3.60238,7.58558 c -14.82221,31.21136 -63.09221,48.27883 -152.82774,54.03734 -25.43267,1.63207 -95.12639,1.88689 -115.85844,0.42361 z"
         id="path5320"
         inkscape:connector-curvature="0" />
      <path
         style="fill:#cccccc;fill-opacity:1"
         d="m 215.83686,510.50353 c -0.27305,-0.27306 -8.56055,-0.95682 -18.41666,-1.51946 C 143.97513,505.9331 104.31187,498.18454 77.377393,485.53268 60.15566,477.44316 50.041325,468.74651 43.658331,456.53989 L 40.5,450.5 40.5,434 c 0,-18.75508 0.95936,-23.2674 7.219194,-33.95522 4.992855,-8.52462 20.251842,-23.91995 33.173862,-33.47028 21.156804,-15.63643 53.441464,-32.92121 85.891164,-45.98498 19.33954,-7.78581 19.29595,-7.76371 24.38194,-12.3586 10.33297,-9.33521 13.35724,-27.37382 6.77137,-40.38852 -1.20857,-2.38832 -5.46695,-8.3924 -9.46305,-13.3424 -22.78943,-28.22943 -38.20757,-62.20972 -45.0051,-99.18752 -2.51961,-13.70638 -3.04939,-39.54959 -1.08413,-52.88507 C 148.58433,60.3628 169.82677,29.792011 204.14848,13.541648 218.03188,6.9682485 241.81571,1 254.1277,1 c 14.93546,0 41.24118,5.7335785 54.22837,11.819581 16.26755,7.623233 32.28258,20.80877 42.26476,34.797548 9.35878,13.115149 17.02201,33.04685 20.52435,53.382871 1.54932,8.99602 1.50141,38.0506 -0.0817,49.56823 -3.37629,24.56289 -14.52894,55.47828 -28.21412,78.21013 -6.55876,10.89448 -10.43933,16.38038 -19.47969,27.53813 -8.50567,10.49783 -10.68721,16.53519 -10.72588,29.68351 -0.0303,10.30574 1.37381,15.55646 5.66427,21.18163 3.62564,4.75352 4.58114,5.22128 34.69198,16.98314 60.55675,23.6546 103.30706,54.08899 117.05862,83.33523 2.15108,4.57484 2.38267,6.59067 2.72353,23.70658 l 0.37253,18.70659 -3.81431,7.25864 c -9.48644,18.05274 -29.44058,30.3658 -63.75003,39.3381 -22.55406,5.89813 -46.6688,9.59659 -74.59034,11.43986 -9.075,0.59909 -21.225,1.53113 -27,2.07119 -10.56879,0.98836 -87.23769,1.40802 -88.16314,0.48257 z"
         id="path5318"
         inkscape:connector-curvature="0" />
      <path
         style="fill:#cccccc;fill-opacity:1"
         d="m 239.6855,510.25188 c 9.45202,-0.1642 25.20202,-0.16448 35,-6.2e-4 9.79797,0.16387 2.0645,0.29822 -17.1855,0.29856 -19.25,3.4e-4 -27.26653,-0.13373 -17.8145,-0.29794 z M 191,507.95777 C 139.14388,504.14385 97.887301,495.56475 74.5,483.73216 60.597794,476.69848 49.322283,466.42964 44.32343,456.24976 41.548702,450.59918 41.500385,450.19814 41.522304,433 c 0.02015,-15.81018 0.240587,-18.04517 2.28287,-23.14582 C 50.96291,391.97756 69.511534,373.721 100,354.5442 c 13.84265,-8.70682 48.42761,-25.79757 68.73896,-33.96852 8.93142,-3.59298 18.00743,-7.70301 20.16889,-9.1334 C 196.95804,306.11492 202,295.3643 202,283.52679 202,273.14504 199.41021,266.84546 190.75986,256.1856 173.84561,235.34206 160.8019,211.73764 152.63371,187.19103 144.85337,163.80993 142.04201,147.33374 142.02196,125 142.00004,100.58743 145.83177,82.248868 154.87199,63.5 173.25308,25.378735 210.57715,3 255.77609,3 291.31794,3 318.45657,14.003216 340.75343,37.453617 351.09922,48.33465 357.5107,58.631372 362.88719,73 c 7.08357,18.930786 8.58464,28.31042 8.48185,53 -0.075,18.02443 -0.44373,23.19737 -2.28069,32 -7.6799,36.80168 -23.16016,69.75057 -45.50156,96.84759 -9.79003,11.87395 -11.6983,17.04109 -11.67259,31.60662 0.0179,10.10771 2.04664,16.97176 6.58258,22.271 3.00765,3.51375 5.38655,4.84901 15.77253,8.85301 38.09385,14.68591 61.32944,25.50221 80.53578,37.48985 28.28568,17.65453 47.86188,36.89196 54.88166,53.93193 2.06819,5.02036 2.26785,7.09916 2.28951,23.83752 l 0.0237,18.33751 -3.54397,6.33721 c -5.65766,10.11684 -16.72756,20.04957 -29.59294,26.55295 -14.02176,7.08792 -38.97677,14.05037 -65.86309,18.37579 -32.32006,5.19959 -43.04307,5.79876 -109,6.09053 -33.825,0.14963 -66.675,-0.10855 -73,-0.57374 z"
         id="path5316"
         inkscape:connector-curvature="0" />
    </g>
  </g>
</svg>
